<?xml version="1.0" encoding="utf-8"?>
<!-- Generator: Adobe Illustrator 19.1.0, SVG Export Plug-In . SVG Version: 6.00 Build 0)  -->
<svg version="1.1" id="Layer_1" xmlns="http://www.w3.org/2000/svg" xmlns:xlink="http://www.w3.org/1999/xlink" x="0px" y="0px"
	 viewBox="0 0 400 400" style="enable-background:new 0 0 400 400;" xml:space="preserve">
<style type="text/css">
	.st0{fill:none;stroke:#000000;stroke-width:2;stroke-miterlimit:10;}
</style>
<line class="st0" x1="-24.2" y1="-19.9" x2="-24.2" y2="-19.9"/>
<g>
	<g>
		<path d="M183,105.1c-0.6,6.1,0.4,12.8,4.7,17.5c5.4,5.8,13.8,6.1,21,4.2c10.6-2.8,24.4-12.3,23.9-24.6
			c-0.5-13.6-18.3-19.1-29.7-18.5c-15.8,0.9-24.5,18.5-16.7,32.2c4.1,7.3,12.8,8.4,20.5,8.6c8.7,0.2,14-3.5,17.3-11.2
			c2.6-6.1,7.5-14.6,3.6-21.1c-3.3-5.5-11.2-8.1-17.3-7.3c-12.8,1.7-36.4,12.4-27.1,29c7.4,13.3,27.8,15.5,39.2,6.5
			c6.7-5.3,9.1-14.3,6.3-22.3c-2.3-6.8-8.6-11.4-15.1-13.7c-7.1-2.4-15.8-2.4-22.2,1.9c-6.2,4.2-8.9,11.5-9.3,18.7
			c-0.1,1.6,2.4,1.6,2.5,0c0.7-12.2,9.2-20.7,21.7-19.7c11.3,0.9,22.2,9.1,21.1,21.3c-1.3,14.8-20.2,19.8-31.9,14.4
			c-6.3-2.9-13.1-9.4-11.1-17c1.9-7.3,9.2-11.1,15.7-13.4c6-2.1,11.8-4.3,18.1-2.2c7.5,2.5,9.5,8,7.1,15c-2.2,6.6-4.5,15.6-12,17.8
			c-5.9,1.7-17.6,1-22.3-3.7c-4.6-4.6-5.5-12.2-4-18.3c1.9-7.5,8-12.3,15.6-13c9.1-0.8,22.3,2.5,26.7,11.3
			c10.4,21.1-46,47.5-45.5,7.5C183.6,104.7,183,104.7,183,105.1z"/>
	</g>
</g>
<g>
	<g>
		<path d="M110.6,151.6c-7.5-1-17.1,9.9-12.8,17.2c4.8,8,22.1,6.6,28.5,1.6c7.8-6.1,4.7-18.2-4.4-20.8c-10-2.9-20.9,4.5-20.9,15.3
			c0,12.9,17,14.7,26.1,10.5c9.1-4.3,8.3-14.9,2.6-21.8c-7.1-8.5-20.7-9.5-28.6-1.5c-8.7,8.9-3,21.7,7.3,26.1
			c6,2.6,13.9,2.8,19.1-1.6c4-3.4,6.6-9.2,5.5-14.4c-1.6-7-10.7-21.7-18.9-13.3c-0.8,0.8,0.3,2.3,1.2,1.6c6.5-4.9,12.1,4.1,14.2,9.5
			c3,7.8-2,16.6-10.6,17.4c-9.6,0.8-22.1-7-19.1-18c2.3-8.4,13-12,20.7-9.3c6,2.1,11.7,9,10.9,15.7c-1,8.7-13.2,10.1-19.9,8.1
			c-11.7-3.4-8.4-18.8,1.8-21.7c7.2-2.1,16,1.9,14.7,10.4c-1.5,9.6-15.2,10.1-22.6,8.1c-5.3-1.4-7.4-5.1-5.1-10.2
			c1.8-4,5.7-7.9,10.4-7.5C111.5,153,111.5,151.7,110.6,151.6L110.6,151.6z"/>
	</g>
</g>
<g>
	<g>
		<path d="M286.6,150.2c-11.2-3-14.9,12-7.3,18.4c7.8,6.6,21.3,3.1,28.5-2.7c8.3-6.7,7.7-18.5-2.7-22.6c-4.6-1.8-10.1-1.8-14.6,0.3
			c-5.1,2.4-11.2,8-12.1,13.8c-2.1,13,17.8,16.2,26.3,11.6c8.7-4.8,10.9-16.4,5.1-24.3c-6.3-8.5-19.6-9.2-27.3-2.1
			c-8,7.3-7.3,19.4,1.9,25.3c6.8,4.4,16.4,5.7,23.4,1c5.6-3.7,6.8-10.8,4.6-16.9c-2.2-6.1-7.5-12.6-14.2-13.7
			c-7.7-1.3-15.1,4-18.4,10.6c-0.7,1.4,1.4,2.6,2.1,1.2c2.6-5,7.3-9.2,13.2-9.6c6.5-0.5,11.5,4.7,14.2,10c2.3,4.6,2.9,10.6-0.9,14.7
			c-4.7,5-12.8,4.7-18.7,2.4c-8.3-3.3-13.4-11.4-8.4-19.8c4.4-7.5,14.6-10,22.1-5.8c6.4,3.6,9.3,12.1,5.8,18.8
			c-4,7.7-13.5,8.9-20.9,6.1c-6.8-2.6-9.2-8.8-4.2-14.8c3.2-3.7,7.3-7,12.3-7.6c7.8-0.9,17.8,4.8,14.2,13.8
			c-2.9,7.5-13.2,11.2-20.6,11.1c-4.3-0.1-8.8-1.5-11.2-5.3c-3.6-5.7,0.2-14.1,7.5-12.6C287.2,151.9,287.6,150.5,286.6,150.2
			L286.6,150.2z"/>
	</g>
</g>
<g>
	<g>
		<path d="M120.3,244c-3.7,1.6-8.7,3.6-10.4,7.7c-0.6,1.4-0.4,2.7-0.4,4.2c0.1,3.1-1.3,6-1.3,8.9c0,3.7,3.9,5.7,6.9,6.6
			c5.7,1.8,11.5,0.2,16.1-3.4c6.9-5.4,6.3-14.5-0.6-19.5c-7.2-5.2-18.1-4.7-23.4,2.9c-6.5,9.3-1.7,19.9,8.8,23.4
			c9.9,3.3,21.8-1,23-12.3c1-9.1-4.9-18.9-14.5-20c-10.4-1.2-17.7,7.5-16.8,17.4c0.9,10.1,10.6,17.2,20.6,15.3
			c12.8-2.4,5.5-20.6,2-28c-0.6-1.2-2.7-0.3-2.2,0.9c1.1,2.9,2.1,5.7,2.9,8.7c0.8,3.3,2.4,8.1,1.6,11.6c-1.9,7.9-14.7,3.7-18.5-0.4
			c-4.8-5.1-5.4-14.9,0.1-19.8c6.6-5.9,16.3-3.1,20.3,4.1c4.2,7.5,1.9,17.5-6.9,20c-7.8,2.2-21.1-2.3-20.8-12.1
			c0.6-20.2,33.6-12,25.9,2.3c-2.2,4.1-8,7.1-12.5,7.1c-2.6,0-6.3-0.8-8.2-2.8c-1.7-1.9-0.8-3.5-0.4-5.7c0.5-2.8-0.6-6,0.2-8.8
			c1.2-3.8,5.8-6,9.1-7.5C121.5,244.7,120.9,243.7,120.3,244L120.3,244z"/>
	</g>
</g>
<g>
	<g>
		<path d="M221.4,291c-0.8-3.8-6.5-4.2-9.6-4.3c-5.6-0.2-10,3.3-12.8,8c-6.2,10.2-2.1,21,8.4,26.1c9.9,4.8,24.1,3.7,30.3-6.4
			c6.9-11.3,2.8-27.2-9.9-31.9c-12.7-4.6-26.8,3.5-29.2,17c-2,11.9,10,20.1,20.3,21.9c10.8,1.8,23-2.6,25.5-14.3
			c2.2-10.4-3.8-22.3-13.4-26.7c-13.1-5.9-28,1.4-36.1,12c-11.6,15.3,6.3,26.5,19.8,30.3c1.7,0.5,2.4-2.1,0.7-2.7
			c-9.4-3.4-27.6-11.1-19.5-24c5.1-8.1,13.8-14.1,23.5-14.8c9.8-0.7,18.2,5,21.4,14.3c2.5,7.4,1,16.2-6.1,20.5
			c-8,4.7-19.2,3-26.4-2.3c-9.1-6.7-8-17.4-0.4-24.9c9.7-9.7,28.4-4.2,30.1,9.7c1.2,10.6-3.4,20.1-14.5,22.2
			c-9.5,1.8-22.6-3.1-25-13.3c-1.3-5.4,1.6-11.7,5.4-15.4c2.2-2.1,4.9-3.3,8-3.3c2.3-0.1,7.5,0,8.2,2.8
			C220.2,292.3,221.6,291.9,221.4,291L221.4,291z"/>
	</g>
</g>
<g>
	<g>
		<path d="M304.2,258.1c-4-6.5-12.6-10-19.2-4.9c-5.5,4.3-6.9,13.3-2.3,18.8c11.6,14,37.3-6.5,20-19.1c-6.8-4.9-15.9-3.7-21,2.8
			c-3.7,4.7-5.3,12-1.1,16.9c10.4,12.2,36.8-0.8,29.4-16.8c-3.3-7.2-13.1-9.6-20-6.8c-7.1,2.9-15.3,13.6-7.1,19.7
			c1.2,0.9,2.6-1,1.6-2c-6.9-7.2,5.1-15.9,11.9-15.9c7.3,0.1,13.6,5.9,11.4,13.5c-3.7,12.8-30.9,13.8-26.4-1.9
			c1.9-6.7,8.7-11.2,15.6-9.2c4.6,1.3,9.3,5.8,8.8,10.9c-0.5,4.7-5,8.3-9.4,9.3c-8.3,2-15.9-4.4-13.5-13.1c2.9-10.3,14.9-9.5,20-1.6
			C303.5,259.5,304.6,258.8,304.2,258.1L304.2,258.1z"/>
	</g>
</g>
<g>
	<g>
		<path d="M217.2,123c6.1,0.6,12.1,4,17.8,6c5.4,1.9,10.4,4.6,15.7,6.5c11.1,3.9,21,10.7,30.5,17.5c1.6,1.2,3.2-1.3,2-2.6
			c-3.7-4.3-9.3-7.5-14.2-10.1c-5.5-2.9-10.5-6.1-16.4-8.1c-5.7-2-10.9-4.7-16.6-6.6c-6.1-1.9-12.2-4.8-18.7-4.9
			C215.7,120.7,215.7,122.9,217.2,123L217.2,123z"/>
	</g>
</g>
<g>
	<g>
		<path d="M227,105.8c5.3,3.9,10.3,7.3,16.3,10.1c6.2,3,12.1,6.3,17.8,10.1c5.9,4,12.8,6.9,19.1,10.1c5.7,2.9,12.4,5.3,18.8,5
			c1.3-0.1,1.8-2.2,0.3-2.4c-8.2-1.1-14.8-4-22-7.8c-6.1-3.3-12.2-5.8-17.9-9.8c-5.4-3.8-11.9-6.3-17.9-9.1
			c-2.9-1.4-5.8-2.9-8.6-4.6c-1.8-1.1-3.6-2.7-5.8-2.8C226.6,104.6,226.6,105.5,227,105.8L227,105.8z"/>
	</g>
</g>
<g>
	<g>
		<path d="M285.7,166.2c-5,4.7-2,11.8-2.3,17.8c-0.2,3.6,0.4,7.1,1.1,10.6c0.8,3.7,0.1,6.3-0.2,10c-0.3,3.4,1.1,6.6,1,9.9
			c0,4.3-0.8,8.4-0.8,12.7c0,5.3,0.2,10.5,0.6,15.8c0.1,1.6,0,3.3-0.1,4.9c-0.1,0.8-0.4,1.9-0.3,2.6c0.2,0.8-0.6,1,0.2,0.5
			c0.6,0.1,1.3,0.2,1.9,0.2c0,0-0.1-0.1-0.1-0.1c-1.5-1.2-3.7,0.8-2.2,2.2c0,0,0.1,0.1,0.1,0.1c0.6,0.5,1.2,0.5,1.9,0.2
			c3.4-1.4,1.6-11.8,1.4-14.3c-0.4-5.2-0.2-10.5-0.1-15.7c0.1-4.2,1.2-8.4,0.7-12.7c-0.5-3.6-0.7-6.4-0.3-10.1
			c0.3-2.6-0.1-4.9-0.7-7.4c-0.9-4-1.2-7.7-1.2-11.7c0-4.8-3.2-10.5,0.4-14.7C287.6,166.6,286.5,165.5,285.7,166.2L285.7,166.2z"/>
	</g>
</g>
<g>
	<g>
		<path d="M301,170.4c-2.3,5.8-2.6,12.8-3.1,19c-0.3,4.5-0.6,8.8-1.7,13.2c-0.8,3-1.4,5.8-1.7,9c-1.2,14.3,1.3,27.7,4.1,41.7
			c0.2,1.1,2.1,0.9,2-0.3c-0.8-7-2.5-14-3.5-21c-0.9-6.5-0.8-13-0.3-19.6c0.5-6.9,2.8-13.3,3.1-20.3c0.4-7,0.5-14.6,2.4-21.4
			C302.7,169.9,301.4,169.6,301,170.4L301,170.4z"/>
	</g>
</g>
<g>
	<g>
		<path d="M120,152.2c11.6-9,24-17,35.9-25.7c6.2-4.5,12.3-9.1,18.4-13.7c4.9-3.6,10.2-6.9,15-10.6c1.1-0.8-0.3-2.5-1.4-1.8
			c-5.7,3.6-11.1,7.2-16.5,11.2c-6.2,4.5-12.2,9.2-18.4,13.6c-11.5,8.3-23.3,16.3-34.5,25.1C117.4,151.1,118.9,153.1,120,152.2
			L120,152.2z"/>
	</g>
</g>
<g>
	<g>
		<path d="M128.9,157.2c5.5-3.2,10.3-7.7,15.4-11.4c5.8-4.2,11.9-7.9,17.9-11.8c5.1-3.4,10.5-6.4,15.2-10.2c3-2.4,5.9-4.3,9.4-6
			c2.5-1.2,5.1-2.2,7-4.2c0.6-0.6-0.2-1.8-1-1.3c-4.6,3.4-10.3,4.9-14.8,8.4c-5.7,4.4-11.7,8-17.7,11.9c-5.7,3.7-11.6,7.2-17.1,11.3
			c-5.1,3.8-9.9,8.3-15.2,11.8C127.1,156.3,127.9,157.7,128.9,157.2L128.9,157.2z"/>
	</g>
</g>
<g>
	<g>
		<path d="M104.9,173.4c-0.1,0-0.1-0.1-0.2-0.1c-0.2-0.1-0.5-0.1-0.7,0c-1.8,1.3,0.7,7.5,1,8.9c1.5,8,2.8,16.4,3.6,24.5
			c0.8,7.9,0.4,15.7,0.5,23.6c0,3.7,0.7,7.3,1,11c0.3,3.7,0,7.3,1,10.8c0.2,0.9,1.7,0.7,1.6-0.2c-0.2-6.6-1.3-13.2-1.5-19.7
			c-0.3-7.2,0.3-14.4-0.2-21.7c-0.4-6.4-1.8-12.5-2.8-18.8c-0.5-3.3-0.8-6.7-1.5-10c-0.4-2-0.9-6.2-2.6-7.2
			C105,175,105.5,173.9,104.9,173.4L104.9,173.4z"/>
	</g>
</g>
<g>
	<g>
		<path d="M123.7,172.7C123.6,172.7,123.6,172.7,123.7,172.7c-0.4,0-0.7,0.2-0.8,0.4c-0.4,0.8-0.3,1.6-0.3,2.4
			c-0.2,2.8-0.5,5.6-0.6,8.4c-0.5,7.3,0.3,14.8,1,22c0.7,6.6,1.5,13.1,2.9,19.6c1.3,6.1,1.8,12.6,4.9,18.1c0.6,1.1,2.2,0.1,1.7-1
			c-2.5-5.5-3.2-11.8-4.5-17.7c-1.5-6.6-2.3-13.3-3.1-20c-0.7-6-1.4-12.2-1.3-18.3c0-1.1,1.5-12.3,0.1-12.4
			C124.7,174.4,124.7,172.7,123.7,172.7L123.7,172.7z"/>
	</g>
</g>
<g>
	<g>
		<path d="M131.8,275.5c12.6,5.9,25.9,9.6,38.6,15c6.9,2.9,14.5,6.5,20.4,11.1c5,3.9,9.7,7.9,14.7,11.7c1.1,0.8,2.2-1,1.1-1.8
			c-5.4-4.1-10.5-8.7-16-12.6c-5.7-4.1-12.8-7.3-19.3-10c-12.8-5.4-26-9.6-38.9-14.7C131.6,273.9,131.1,275.2,131.8,275.5
			L131.8,275.5z"/>
	</g>
</g>
<g>
	<g>
		<path d="M135.3,264c1.9,0,4.7,2.4,6.5,3.1c3,1.3,6,2.4,9,3.5c7.4,2.7,14.9,4.8,22.7,6.4c7.3,1.5,14.5,3.5,21.8,4.9
			c3.2,0.6,6.4,0.9,9.6,1.4c3,0.5,6.1,1.7,9.1,1.8c1.4,0,1.8-2.3,0.3-2.6c-13.8-2.2-27.4-5.4-41.1-8.1c-7.4-1.5-14.6-3.5-21.8-5.9
			c-3.4-1.1-6.8-2.3-10-3.7c-1.8-0.7-3.6-2-5.5-2.2c-0.4,0-0.7,0.4-0.7,0.7c0,0.2,0,0.3,0,0.5C135.1,263.8,135.2,264,135.3,264
			L135.3,264z"/>
	</g>
</g>
<g>
	<g>
		<path d="M235.1,288.4c2.6-2.7,7.7-3.9,11-5.6c4-2,7.7-4.3,11.5-6.6c3.8-2.3,7.6-4.5,11.4-6.7c3-1.8,6.8-3.2,9-5.9
			c0.8-0.9-0.2-2.6-1.4-1.8c-7.2,5.1-15.4,9-22.9,13.6c-3.5,2.1-6.9,4.2-10.6,6c-3.3,1.7-7.3,2.6-9.9,5.3
			C232.3,287.9,234,289.6,235.1,288.4L235.1,288.4z"/>
	</g>
</g>
<g>
	<g>
		<path d="M242.5,294.3c6.5-5,14.2-8.8,21.6-12.3c6.9-3.3,14.5-6.9,21.7-9.4c1.3-0.4,0.8-2.3-0.6-2c-4,0.6-8.1,3.2-11.9,4.7
			c-3.6,1.4-7.1,2.9-10.5,4.5c-7.6,3.6-15.4,7.5-22,12.7C239.6,293.5,241.3,295.2,242.5,294.3L242.5,294.3z"/>
	</g>
</g>
<g>
	<g>
		<path d="M350.2,123.7c4.4,12.2,15.2,24.6,29.4,21.2c15.3-3.7,20-21.8,8.9-32.7c-6.6-6.4-15.1-6.8-23.8-6.7
			c-5.9,0-10.2,1.7-12.6,7.4c-5.5,13.1,2.4,29.2,16.2,32.6c13.2,3.2,33.3-7.3,27.2-23.1c-2.6-6.7-8.3-14.5-15.2-17
			c-6.6-2.4-14.8-2.4-21.2,0.6c-13.6,6.4-17.6,24.8-5.5,35c10.4,8.7,30.4,6.1,37.7-5.6c9.9-16-9.3-34.6-25.4-31
			c-16.9,3.7-21.9,26.1-9.5,37.4c1.3,1.2,3.1-0.7,1.9-1.9c-8.7-8.6-7.7-24.2,3.3-30.6c12.5-7.3,29.4,3,29.3,17.3
			c-0.1,13-16.9,18.6-27.6,16c-13.2-3.3-18.7-19.9-8.9-29.8c9.4-9.5,26-8.1,33.8,2.4c4.6,6.3,8.5,13.7,2.6,20.6
			c-4.1,4.9-9.8,7.8-16.2,7.8c-12.6,0.1-21.7-10-21.5-22.4c0.1-4.3,1.2-10.1,5.3-12.3c2.5-1.4,5.9-1,8.6-1c3.8,0,7.8-0.1,11.5,0.9
			c7.6,2.1,14.4,9.5,14.6,17.7c0.1,7.9-5.9,14.6-13.2,16.7c-13.7,4-24.6-7.9-28.9-19.6C350.7,123,350,123.2,350.2,123.7L350.2,123.7
			z"/>
	</g>
</g>
<g>
	<g>
		<path d="M309.1,146.7c7.8-3.2,16-5.2,23.8-8.5c5.1-2.2,10.4-3.9,15.7-5.6c2.3-0.7,5.6-1.1,6.7-3.5c0.5-1.1-1-2.6-1.9-1.4
			c-1.9,2.4-8.5,3.5-11.2,4.4c-4.1,1.5-8,3.2-12,5c-7.1,3.2-14.5,5.4-21.6,8.7C308.2,146,308.6,146.9,309.1,146.7L309.1,146.7z"/>
	</g>
</g>
<g>
	<g>
		<path d="M312.3,155.9c3-2.9,8.5-3,12.4-4.1c5.6-1.7,11.1-3.7,16.8-5.3c5.3-1.5,10.6-3,15.9-4.3c2.9-0.7,6.9-0.4,9.3-2.4
			c1-0.9-0.3-2.3-1.3-1.7c-1.8,1-3.9,0.9-5.9,1.2c-2.7,0.5-5.3,1.4-7.9,2.2c-5.6,1.6-11.3,3.1-16.8,4.9c-4.9,1.6-9.6,3.5-14.6,4.7
			c-3.1,0.8-6.6,1.4-9,3.7C310.2,155.4,311.5,156.6,312.3,155.9L312.3,155.9z"/>
	</g>
</g>
<g>
	<g>
		<path d="M191.3,4.9c-7.2-0.3-12.1,0.7-16.7,6.7c-3.5,4.5-4.9,10.5-4.1,16.1c1.5,11.1,13.3,16.7,23.3,17.8
			c10.7,1.2,20.7-4.6,24.9-14.5c3.8-8.9,2.6-20.6-5.6-26.5C205-1.4,193.5,0,185.8,5.7c-8.9,6.6-14.8,20.6-7.8,30.6
			c6.2,8.9,21.9,12.7,31.7,8.4c12.8-5.6,10.9-21.1,6.2-31.6c-6-13.4-22.2-19-34.9-11c-11.1,7-17.4,23.7-6.7,33.8
			c1.4,1.3,3.1-0.6,2-2c-7.2-9.3-3.7-21.9,5.8-28.3c9.2-6.2,22.3-4.3,28.6,5.3c5.1,7.8,9,21.9,0.7,28.9c-7.3,6.2-21.6,3.3-28.3-2.5
			c-8.9-7.7-4.6-21.1,3.1-27.8c5.4-4.7,13.5-6.9,20.4-4.6c17.9,5.9,11.7,32.1-3.6,37.1c-8.9,2.9-22.7-0.6-28.1-8.5
			c-3.2-4.6-3.1-11.5-1.1-16.6c1.2-3,3.2-5.6,5.6-7.6c3.7-3.1,7.2-3.1,11.8-3C192,6.1,192,5,191.3,4.9L191.3,4.9z"/>
	</g>
</g>
<g>
	<g>
		<path d="M188.5,46.8c1.1,8.2,2.7,16.2,3.5,24.4c0.4,4.1,0.3,8,0.3,12.1c0,4.1,0.9,8.1,1,12.2c0,1.2,2,1.2,1.9,0
			c-0.1-4.1-1.1-8.1-1.1-12.2c0-4.4,0-8.6-0.5-13c-0.8-8-2.5-15.8-3.6-23.7C189.9,45.7,188.4,45.9,188.5,46.8L188.5,46.8z"/>
	</g>
</g>
<g>
	<g>
		<path d="M201.5,45c0,3.8-1,7.5-1.3,11.3c-0.2,3.9-0.2,7.7,0,11.6c0.1,3.1,0.4,6.1,0.9,9.2c0.7,4,2.2,7.4,3.3,11.3
			c0.3,1,1.9,0.8,1.8-0.2c-0.3-2.9-1.5-5.4-2.2-8.1c-1.1-4.3-1.5-8.6-1.7-13c-0.2-3.6-0.3-7.1-0.1-10.7c0.1-3.8,1.1-7.5,1-11.3
			C203.1,43.9,201.5,43.9,201.5,45L201.5,45z"/>
	</g>
</g>
<g>
	<g>
		<path d="M15.1,130.1c-11.2-0.7-15.6,10.5-15.3,20.1c0.4,12.6,15,18,25.9,17.5c9.9-0.5,22.4-6,22.4-17.5
			c-0.1-10.4-8.6-19.4-17.8-23.1c-10.1-4.2-21.2-1.2-26.4,8.8c-3.9,7.5-4.9,19.6,2.3,25.7c3.4,2.9,8,3.4,12.3,3.8
			c6.3,0.6,13.7,1.8,19.6-0.9c11.4-5.3,11.3-19.3,5.9-28.9c-6.2-11-22.2-17.3-32.7-8.5c-9.6,8-11.8,23.4-3.1,32.7
			c1.2,1.3,3-0.6,1.9-1.9c-6.1-7.2-5.4-17.2-0.3-24.7c6.7-9.8,20.1-8.9,28-1c6.7,6.8,10.3,19.8,2.6,27.1c-4.1,3.9-9.5,3.9-14.8,3.6
			c-4.4-0.3-9.1-0.3-13.4-1.5c-7.8-2.3-9.4-11-7.9-18.1c1.8-8.7,8.4-15.8,17.7-15.4c16.7,0.8,34.9,26,13.4,34.8
			c-9.3,3.8-24.4,3-30.8-5.9c-3.2-4.5-2.2-10.6-0.8-15.5c1.7-5.6,4.9-9.2,11.2-8.9C16.7,132.5,16.6,130.2,15.1,130.1L15.1,130.1z"/>
	</g>
</g>
<g>
	<g>
		<path d="M41.7,155.8c10.3,1.3,20.6,2.9,31,4c5.3,0.6,10.4,1.3,15.5,2.8c3.8,1.1,9.9,1.7,13.1,4.1c0.9,0.6,1.9-0.8,1.2-1.5
			c-2.6-2.4-6.7-2.6-10-3.7c-5.1-1.6-10.1-2.9-15.3-3.5c-11.8-1.4-23.6-2.2-35.4-3.5C40.9,154.5,40.9,155.7,41.7,155.8L41.7,155.8z"
			/>
	</g>
</g>
<g>
	<g>
		<path d="M44.2,146.2c10.7,2.5,21.7,3.9,32.5,5.6c10.3,1.6,20.7,4,31.1,4.7c1.1,0.1,1.2-1.6,0.2-1.8c-9.9-2.9-20.8-3.6-31-5
			c-10.9-1.4-21.8-3.1-32.7-4.5C43.8,145.2,43.7,146.1,44.2,146.2L44.2,146.2z"/>
	</g>
</g>
<g>
	<g>
		<path d="M30,307.7c-7.7,6.3-9.6,17.9-2.8,25.6c8.2,9.1,23.9,7.7,29.8-3.2c5.5-10.2-2.4-23.5-13-26.3c-11-2.9-20.4,7-21.6,17.4
			c-1.2,10.5,7.7,18.9,17.9,19.5c10.2,0.6,21.6-6.6,22.5-17.5c1.1-12.6-11.7-23.9-23.8-22.7C26.8,301.7,14.7,313,19,326
			c4.4,13.2,22.5,16.4,32.8,8.4c10-7.8,8.3-22.9-1.2-30.3c-1.3-1-3.2,0.7-1.9,1.9c5.5,5.2,9,13.1,5.7,20.6
			c-4.3,9.6-17.5,11.5-25.9,6.4c-10.7-6.5-8.5-20.4,1.5-26.3c10.7-6.3,23.1-2.5,28.4,8.8c9.1,19.2-23.7,31.5-32.3,13
			c-3.2-7,1.1-16.9,7.6-20.6c9.3-5.4,20.5,2.9,22.3,12.5c2.7,14.5-16.5,21.3-26.1,12.4c-7.2-6.7-5.9-17.7,1.2-23.8
			C31.8,308.2,30.7,307.1,30,307.7L30,307.7z"/>
	</g>
</g>
<g>
	<g>
		<path d="M48.3,305.9c-2.1-3.3,25-20.7,27.5-22.4c10-6.8,20.2-13.3,30.2-20.1c0.9-0.6,0.1-2.1-0.9-1.5
			c-12.1,7.4-23.9,15.3-35.5,23.4c-6.1,4.3-12.4,8.7-18,13.8c-1.4,1.2-6.3,5.1-4.7,7.5C47.5,307.5,48.8,306.8,48.3,305.9L48.3,305.9
			z"/>
	</g>
</g>
<g>
	<g>
		<path d="M113.9,269.4c-4.7,0.2-8.1,4.2-11.9,6.6c-5.8,3.6-11.8,6.9-17.4,10.8c-11.2,7.9-21.9,16.8-32.4,25.6
			c-0.9,0.8,0.3,2.2,1.2,1.6c4.8-2.9,8.8-6.9,13.2-10.4c5.2-4.1,10.5-8.2,15.8-12.3c5.1-4,10.6-7.4,16.1-10.7c2.5-1.5,5-2.9,7.3-4.6
			c2.5-1.8,4.8-4.4,8.1-4.7C115.1,271.2,115.1,269.3,113.9,269.4L113.9,269.4z"/>
	</g>
</g>
<g>
	<g>
		<path d="M215.6,354.2c-5.4-1.4-9.6-0.6-14.2,2.9c-4.6,3.5-8.5,9-9.4,14.8c-1.8,12.1,9.8,21.4,20.5,23.7c9.5,2.1,25,1,29.2-9.7
			c3.9-10-2.2-21.4-10.4-27c-5-3.4-11.4-6.5-17.6-5.8c-5.5,0.6-10,4.3-13.3,8.6c-6.6,8.6-10.2,21.9-1.3,30.3
			c9.6,9,23.3,8.1,32.9-0.1c8.6-7.3,12.3-19.7,6.6-30c-6.8-12.2-24.1-14.3-34.6-5.9c-5.1,4.1-7.9,10-8.9,16.4
			c-1.1,7.1,0.8,12.1,5.3,17.5c0.9,1,2.7-0.4,1.9-1.5c-6-8.1-6.1-19.1,0.5-27.1c6.6-8,18.3-9.9,27.1-4.4c20.8,13,0.4,44.9-20.7,37.8
			c-10.2-3.4-14.8-12.1-11.3-22.3c3.4-10.1,12.1-19.3,23.5-15.3c8.5,3,15.9,9.1,17.9,18.2c1,4.6,0.8,9.8-2.8,13.2
			c-3.6,3.5-9.4,4.6-14.2,4.8c-9.8,0.5-21.1-3.2-25.9-12.5c-6-11.5,6.2-27.4,18.6-24.8C216.3,356.4,216.8,354.5,215.6,354.2
			L215.6,354.2z"/>
	</g>
</g>
<g>
	<g>
		<path d="M220.8,320.1c-3.6,9.6-1.8,23.8,2.6,32.8c0.6,1.3,2.6,0.2,1.9-1.1c-4.4-8.6-6.6-22.1-3.4-31.4
			C222.2,319.7,221,319.4,220.8,320.1L220.8,320.1z"/>
	</g>
</g>
<g>
	<g>
		<path d="M370.5,271.4c-6.7,0.8-11.6-3.8-17.8,0.9c-4.1,3.1-4.5,6.2-5.3,10.9c-1,5.8-4.1,12.1-1.8,17.9c2,5.3,7,9.6,11.5,12.7
			c10.8,7.5,23.5,5.9,29.7-6.4c5-10,5.3-23.8-2.8-32.3c-10.1-10.6-27.3-9.2-36,2.6c-6.7,9.1-2.3,22.8,3.6,31.2
			c6.5,9.3,16.9,14.4,27.2,7.5c9.4-6.3,17.1-20.1,12.4-31.4c-3.1-7.3-10.8-12.9-18.6-13.8c-7.9-0.9-15.7,3.2-21.6,8.1
			c-11.3,9.4-10.8,28.9,2.5,36.3c2.2,1.2,4-1.9,1.9-3.3c-9.5-6.4-11.4-20.7-2.9-28.8c9.8-9.3,25.7-12.1,33.7,1.1
			c5.3,8.9-0.6,20.5-7.7,26.5c-7.8,6.6-16.2,4.5-22.2-3.1c-5.1-6.3-9.5-16.8-6.5-25c4.4-11.8,21-14,29.8-6.4
			c14.6,12.7,3,47.1-18.3,35c-4.2-2.4-8.6-5.9-11.2-10.1c-3.3-5.2-0.5-10.8,0.5-16.4c0.7-3.7,0.4-7,3.2-9.8
			c4.8-4.7,11.1-0.7,17.1-1.6C372.3,273.8,372,271.2,370.5,271.4L370.5,271.4z"/>
	</g>
</g>
<g>
	<g>
		<path d="M303.6,273.2c0,0-0.1-0.1-0.1-0.1c-0.6-0.3-1.2,0.3-0.9,0.9c0.6,1.1,3.2,1.7,4.2,2.1c5.5,2.2,11,4.2,16.4,6.6
			c5.5,2.4,10.8,5.1,15.9,8.3c3,1.9,5.9,4.8,9.6,5.1c1.3,0.1,1.6-2,0.3-2.3c-3.7-1-7.4-4.6-10.8-6.5c-4.7-2.7-9.6-5-14.6-7.1
			c-3.9-1.7-7.9-3.1-11.9-4.5c-2.3-0.8-6.1-1.3-8.2-2.6c-0.1,0.4-0.2,0.8-0.3,1.2c0.1,0,0.1,0,0.2,0
			C303.9,274.3,304.2,273.5,303.6,273.2L303.6,273.2z"/>
	</g>
</g>
<g>
	<g>
		<path d="M307,267.1c6.4,2.9,12.1,6.5,18.9,8.8c3.8,1.3,7.6,2.5,11.5,3.4c3.5,0.8,7.2,0.9,10.6,2.1c1.1,0.4,2.2-1.3,1.2-2.1
			c-2-1.5-3.9-1.6-6.3-2c-4.7-0.7-9.2-2-13.8-3.3c-3.9-1.1-7.7-2.3-11.4-3.9c-3.4-1.4-6.5-3.6-10-4.7
			C306.7,265.3,306.1,266.7,307,267.1L307,267.1z"/>
	</g>
</g>
<g>
	<g>
		<path d="M178.3,12.3c-0.2,0-0.3,0.1-0.5,0.1c-0.3-0.6-0.7-1.1-1-1.7c-1.2,2.4-2.6,4.8-3.6,7.3c-0.9,2.3-1.3,5.1-2.5,7.3
			c0.8,0.1,1.7,0.2,2.5,0.3c-1.1-5.8,1.7-12.2,3.9-17.3c-0.8-0.3-1.6-0.7-2.4-1c-1.1,4.6-2.4,8.4-2.6,13.2c-0.1,3.2-0.1,6.4,0.1,9.6
			c0.1,1.6,2.5,1.6,2.5,0c0.1-3.8,0-7.7-0.1-11.5c-0.1-1.6-2.2-1.5-2.4,0c-0.5,4.6,0.2,11.7,3.4,15.3c0.5,0.6,1.6,0.4,1.9-0.2
			c1-1.9,0.6-4.7,0.8-6.8c0.1-1.9,1-4.9,0-6.7c-0.4-0.7-1.6-0.8-2,0c-2.4,4.8-1.5,14.5,3.5,17.7c0.6,0.4,1.4,0.1,1.7-0.4
			c2-3.2,1.5-10-0.2-13.2c-0.5-0.9-1.9-0.7-2.1,0.3c-0.5,2,0.9,4.6,1.4,6.6c0.6,2.2,0.8,5.2,2.1,7.1c0.5,0.7,1.5,0.8,2,0
			c1.2-2.1,0.2-7.7-0.8-9.9c-0.5-1.1-2-0.4-2.1,0.6c-0.2,2,1.4,4.5,2.1,6.3c0.6,1.6,0.9,3.8,2.3,4.8c0.6,0.4,1.3-0.1,1.6-0.6
			c0.6-1.7,0.1-6-0.9-7.5c-0.6-0.9-1.9-0.6-2,0.5c-0.1,1.8,2.1,6.2,3.7,7c0.6,0.3,1.2,0.2,1.5-0.4c0.8-1.3,0.8-4.2,0.2-5.6
			c-0.6-1.4-2.7-0.9-2.3,0.6c0.8,2.6,2.9,9.1,6.5,8.6c4.4-0.6,1.7-6.3-1-7.4c-4.9-1.9-4.5,4.9-2.2,7.4c2.7,2.9,8.7,3.2,7.7-2.3
			c-0.8-4.4-6.9-3.7-5.5,0.9c1.5,4.7,8.6,4.5,10-0.2c1.1-3.7-3.8-5.5-5.7-2.4c-2.4,4.1,2.1,7.1,5.7,5.7c1.8-0.7,5.1-2.7,5.1-5
			c0-2.2-2.8-3.5-4.6-2.3c-1.4,1-1.6,3.3-0.1,4.2c3.1,1.8,5-3.5,7.2-3.3c-0.1-0.8-0.2-1.6-0.3-2.3c-5,1.1-12.4,1-17.1-1.1
			c-3.8-1.7-7-5-10.9-6.5c-1.2-0.5-2.1,1.1-1.6,2c2.9,4.8,10.2,10.4,16,11.1c1,0.1,1.4-1.1,1.1-1.8c-1.6-3.3-5.5-6.1-7.8-8.9
			c-2-2.5-3.7-5.8-6.2-7.9c-0.5-0.4-1.4-0.2-1.4,0.6c0.2,3.6,2.3,8.1,4.1,11.2c1.5,2.6,4.3,6.8,7.2,7.9c0.3,0.1,0.8-0.1,1-0.4
			c1.5-3.4,0.1-10.2-1.4-13.5c-0.3-0.7-1.3-0.4-1.5,0.2c-0.5,1.6,0.6,4,0.9,5.5c0.4,1.9,0.5,4.6,1.7,6.3c0.3,0.4,1,0.7,1.4,0.2
			c1.4-1.6,2.7-6.1,2.5-8.2c-0.1-1-1.7-1.4-1.9-0.3c-0.4,1.9,0.6,6.4,1.8,8c0.4,0.5,1.2,0.8,1.6,0.2c1.8-2.1,3.5-5.7,4.3-8.4
			c-0.7,0-1.4,0-2,0c0.4,1.8,0.5,3.6,1,5.4c0.2,0.7,1,0.9,1.6,0.6c1.4-0.7,2.7-2.6,3.9-2.7c0.7-0.1,1.8,0.6,2.7,0.5
			c1.4-0.2,2.2-0.9,3.3-1.8c0.9-0.7-0.3-2.3-1.2-1.6c-2.7,2.1-3.2,1-5,0.5c-0.4-0.1-0.8,0-1,0.3c-1,1.1-2.4,2.4-3.7,3
			c0.5,0.2,1.1,0.4,1.6,0.6c-0.5-1.8-0.7-3.6-1.1-5.4c-0.2-1.1-1.8-1-2,0c-0.7,2.3-2.2,5.6-3.7,7.5c0.5,0.1,1.1,0.1,1.6,0.2
			c-0.8-1.1-1.9-5.1-1.7-6.4c-0.6-0.1-1.3-0.2-1.9-0.3c0.2,1.4-0.9,5.8-1.8,6.9c0.5,0.1,1,0.1,1.4,0.2c-1-1.3-1.1-3.8-1.5-5.3
			c-0.3-1.3-1.5-3.9-1.1-5.1c-0.5,0.1-1,0.1-1.5,0.2c1.2,2.6,1.4,6.2,1.4,9c0,0.3,0.2,2.2,0,2.5c0.5-0.8,0.1-0.7-1-1.9
			c-3.8-4-7.9-10-8.2-15.7c-0.5,0.2-0.9,0.4-1.4,0.6c2.3,2,3.9,5.5,5.8,7.9c2,2.7,5.9,5.6,7.1,8.7c0.5-0.5,1-1,1.5-1.5
			c-4.9-0.8-11.5-6-13.9-10.1c-0.5,0.7-1,1.4-1.6,2c4.6,1.9,8.1,5.9,13,7.1c5,1.2,11.2,1.1,16.3,0.2c1.4-0.3,0.9-2.2-0.3-2.3
			c-1.8-0.2-3.3,1.5-4.5,2.6c-0.9,0.9-1.5,2.5-2.8,3c-0.8,0.3-3.2,0.6-3.9,0.1c-1.1-0.8,0.4-0.8,0.9-0.7c-1.1,0.5-2.2,0.9-3.3,1.4
			c-1.7-0.9-2-1.3-1.1-1.1c0,0-0.1,1.4-1.5,1.3c-1.2-0.1-2.3-1.4-2.7-2.4c-0.5-1.5,0.2-3.4,1.8-1.1c-0.2,0.3-0.5,0.5-0.7,0.8
			c-0.2-0.3-0.5-0.7-0.7-1c-1.2-1.1-1.8-3.6-2.3-5.2c-0.7,0.3-1.5,0.6-2.2,0.9c0.3,0.6,0.4,3,0.1,3.6c0.5-0.1,1-0.3,1.5-0.4
			c-0.8-0.3-2.7-4.1-2.7-5c-0.7,0.2-1.3,0.4-2,0.5c0.6,0.8,1.2,4.7,0.7,5.9c0.5-0.2,1-0.4,1.6-0.6c-0.6-0.4-3.4-7.6-3.3-9.3
			c-0.7,0.2-1.4,0.4-2.1,0.6c0.4,1,1.2,6.7,0.7,7.6c0.7,0,1.3,0,2,0c-1.1-1.5-1.3-4.3-1.7-6.1c-0.4-1.5-1.7-4.7-1.5-5.8
			c-0.7,0.1-1.4,0.2-2.1,0.3c1.2,2.4,1.5,8.5,0,10.8c0.6-0.1,1.1-0.3,1.7-0.4c-3.7-2.4-4.5-10.8-2.7-14.4c-0.7,0-1.3,0-2,0
			c0.7,1.3-0.2,9.7-0.9,11.1c0.6-0.1,1.3-0.2,1.9-0.2c-2.7-3.1-3.2-9.7-2.8-13.6c-0.8,0-1.6,0-2.4,0c0.1,3.8,0,7.7,0,11.5
			c0.8,0,1.7,0,2.5,0c-0.2-2.9-0.2-5.8-0.2-8.6c0.1-4.8,1.3-8.9,2.6-13.4c0.4-1.4-1.7-2.4-2.4-1c-2.7,5.7-5.8,12.9-4.4,19.4
			c0.3,1.1,2,1.4,2.5,0.3c1.1-2,1.4-4.5,2.1-6.6c1-2.9,2.4-5.5,3.6-8.2c0.4-0.9-0.3-1.8-1.3-1.7c-0.3,0.1-0.6,0.3-0.8,0.5
			C175.8,11.8,177.3,13.4,178.3,12.3L178.3,12.3z"/>
	</g>
</g>
<g>
	<g>
		<path d="M191.6,92.8c-5.4,6.5-6.7,13.9-5.7,22.1c0.3,2.2,3.3,2.2,3.4,0c0.5-6.4,0.5-13.1,3.3-19.1c-1-0.4-2-0.9-3.1-1.3
			c-0.7,2.9-0.6,6.3-0.9,9.3c-0.2,2.9-1,6.4-0.6,9.3c0.2,1.4,2.5,1.7,3,0.4c1.4-3.3,3.1-11.5-1.5-13.1c-6.4-2.3-6.1,7.8-5.1,11.2
			c0.9,3.2,3.9,10.5,8.4,7c4.1-3.2,0.8-13.8-2.8-16.3c-0.6-0.4-1.2-0.2-1.7,0.2c-4.7,3.9-2.9,15.3,3.6,16.3c6.5,1,4.8-10.4,2.3-13.4
			c-0.5-0.6-1.5-0.5-2,0c-4.2,4.2-3,15.5,4.4,15.1c5.5-0.3,2.6-9.2-0.1-11.3c-0.7-0.5-1.6-0.5-2.1,0.3c-2.2,3.6,0.1,14.6,6.1,12.3
			c3.4-1.3,4.5-10.3-0.2-10.3c-6.2,0.1-2.6,10.3,0.3,12.3c1.7,1.2,4.5,1.6,5.9-0.4c1.4-1.9,0.3-5-0.7-6.9c-0.9-1.8-3.4-0.2-2.6,1.5
			c4.3,9.9,14.8-0.7,7.8-4.2c-3.1-1.5-8.7,0-10.1,3.3c-1.6,3.8,3,5.7,6.1,6c3.8,0.4,9.1-1,10.2-5.2c1.2-4.5-3.1-6.9-7-6.3
			c-3.5,0.5-6.4,4.2-1.9,6.2c3.3,1.5,8,0.4,11.3-0.4c2-0.5,1.1-3.2-0.8-3c-1,0.1-2.1-0.2-3.1-0.2c0.4,0.8,0.9,1.5,1.3,2.3
			c1.2-2.8,5.8-6.7,8.2-8.5c-0.8-0.5-1.7-1-2.5-1.5c-0.7,2-4.4,5-5.8,7.5c-0.6,1.2,0.7,2.9,2,2c1.9-1.4,3.9-2.9,6-4.1
			c-0.4-0.8-0.9-1.5-1.3-2.3c-3.3,2.2-7.6,4.2-11.5,4.8c-4.4,0.6-8.8-1.6-13.2-1.9c-1.5-0.1-2,2.1-0.8,2.8c3.7,2.2,10.6,5.2,15,4.7
			c1.1-0.1,2-1.2,1.3-2.3c-2.8-4.7-9.6-6.9-14.1-9.3c-0.4,0.9-0.8,1.9-1.2,2.8c1.7,0.3,4.3,2.3,5.6,3.4c0.5-0.8,1-1.7,1.5-2.5
			c-5.8-1.3-11-5.7-11.3-11.9c-0.9,0.2-1.8,0.5-2.7,0.7c1.7,2.3,3.9,4.4,5.8,6.5c1.8,2,3.7,5,6.1,6.3c0.8,0.4,1.6,0,2-0.8
			c0.7-1.8-1.2-6.2-2.3-7.6c-0.7-1-2.3-0.7-2.3,0.6c-0.1,1.8,0.8,3.8,2.6,4.3c0.3,0.1,0.5-0.2,0.8-0.1c0.3-0.1,0.5-0.3,0.8-0.4
			c1-0.8,2.3-0.9,3.9-0.1c0.9,0.1,1.1,0.8,2.1,0.6c0.3-0.1,0.7-0.4,0.8-0.8c0-0.1,0-0.1,0-0.2c0.2-1.4-2-2.1-2.2-0.6
			c0.2-1.6,1.3-0.4-0.6-1.6c-0.8-0.5-2-0.7-2.9-0.6c-0.3,0-2.4,1.2-2.4,1.2c0.4,0.8,0.4,0.7,0-0.3c-0.2-0.4-0.3-0.8-0.4-1.3
			c-0.8,0.2-1.5,0.4-2.3,0.6c0.6,0.8,0.8,2.1,1.1,3c0.2,0.8,0.7,2.9,0.9,2.4c0.6-0.2,1.2-0.3,1.8-0.5c-2.1-1.2-3.9-4.2-5.5-6
			c-1.7-1.9-3.8-3.8-5.3-6c-0.8-1.1-2.7-0.8-2.7,0.7c0.3,7.6,6.2,13.2,13.3,14.8c1.4,0.3,2.7-1.5,1.5-2.5c-1.8-1.5-4.6-3.7-6.9-4.2
			c-1.6-0.3-2.8,1.9-1.2,2.8c4,2.2,10.5,4.1,13,8.2c0.4-0.8,0.9-1.5,1.3-2.3c-3.7,0.4-10.3-2.4-13.4-4.2c-0.3,0.9-0.5,1.9-0.8,2.8
			c4.7,0.3,9.2,2.5,13.9,1.6c4.3-0.8,8.4-3,12.1-5.2c1.5-0.9,0.2-3.1-1.3-2.3c-2.1,1.1-4.1,2.5-6.1,3.8c0.7,0.7,1.3,1.3,2,2
			c1.7-2.9,5-5.1,6.1-8.2c0.6-1.6-1.5-2.3-2.5-1.5c-2.5,2-7.4,6.1-8.7,9.1c-0.5,1.1,0.1,2.2,1.3,2.3c1.3,0.1,2.6,0.3,4,0.1
			c-0.3-1-0.5-2-0.8-3c-1.3,0.3-2.7,0.5-4.1,0.7c-1.1,0.1-2.3,0.3-3.4,0.2c-2.2-0.1-2-0.3,0.6-0.7c1.4,3.3,1,5.1-1.1,5.4
			c-1.1,0.5-3.7,0.7-4.8,0.1c-2.5-1.4-1.5-3,0.6-3.5c5.2-1.4,1.5,2.7,0.3,1.8c-0.5-0.4-0.8-1.2-1-1.8c-0.9,0.5-1.8,1-2.6,1.5
			c0.7,1.4,1.6,2.8-0.3,2.8c-2.1,0-3.7-3.9-2.8-5.8c0.6-1.2,0.4,1,0.4,1.3c-0.3,1.3-0.7,2.8-2.5,1.8c-1.7-0.9-2.2-6-1.2-7.5
			c-0.7,0.1-1.4,0.2-2.1,0.3c0.7,0.6,2.7,4.4,2.2,5.1c-2.8,0.3-4.3-0.8-4.6-3.3c0.1-0.9,0.3-1.7,0.6-2.6c0.3-0.9,0.6-2.4,1.3-3
			c-0.7,0-1.3,0-2,0c0.4,0.5,0.5,1.8,0.6,2.4c0.4,1.8,1.5,5.8-0.9,5.6c-4-0.4-4.4-8.6-1.7-10.9c-0.6,0.1-1.1,0.1-1.7,0.2
			c1.3,0.9,3.3,7,3,8.8c-1.1,5.9-3.8-1.6-4.2-3c-0.2-0.6-0.4-1.3-0.4-1.9c-0.7-1.9,0-3.5,2.1-4.5c0.1,0.8,0.2,1.6,0.1,2.4
			c-0.1,1.7-0.2,3.9-0.9,5.5c1,0.1,2,0.3,3,0.4c-0.4-2.6,0.5-5.9,0.7-8.4c0.2-2.7,0.1-5.8,0.7-8.4c0.4-1.8-2.2-3.1-3.1-1.3
			c-3.2,6.6-3.3,13.6-3.9,20.8c1.1,0,2.3,0,3.4,0c-0.9-7.6-0.5-14.1,4.3-20.5C194.5,93.2,192.5,91.7,191.6,92.8L191.6,92.8z"/>
	</g>
</g>
<g>
	<g>
		<path d="M277.8,150.9c-1-0.5-2.3,7.2-2.2,8.2c0.1,2.3,0.5,5.9,2,7.8c0.8,1.1,2.2,1.2,3,0c2.4-3.6,2.3-10.4,1.8-14.5
			c-0.2-1.8-3-1.5-3.4,0c-1,3.6-0.7,8,1,11.2c1.5,2.8,4.7,6.4,8.1,3.9c4.1-3,1.3-13.4-1.5-16.6c-0.7-0.8-1.9-0.5-2.4,0.3
			c-1.3,2,0,6,0.3,8.2c0.2,2.3-0.1,6.2,1.2,8.2c0.7,1,2.2,1.1,2.8,0c1.2-2,0.1-5.6,0-7.7c-0.2-2.9-0.5-5.8-0.7-8.8
			c-1.1,0.1-2.2,0.3-3.3,0.4c0.5,2,1.7,4,2.5,5.9c0.8,1.7,1.3,4,2.9,5.1c0.9,0.6,2.1,0,2.5-1c0.8-2.3-0.8-8.9-3-10.2
			c-0.6-0.4-1.4-0.2-1.9,0.2c-4.7,3.8,0.3,11.7,5,12.8c0.8,0.2,1.5-0.1,2-0.8c0.9-1.3,0.6-2.9,0.5-4.5c-1.1,0.2-2.3,0.3-3.4,0.5
			c0.8,2.8,2.2,8.3,6.4,7c3.9-1.2,2-6-1-7c-4.2-1.3-7,3.4-4.5,6.8c2.2,2.9,7.1,3.2,10.4,3.4c0-1.2,0-2.4,0-3.6
			c-2.9-0.1-5.8-0.5-8.5-1.5c-2.6-0.9-4.7-2.5-6.6-4.3c-0.8-0.8-1.6-1.8-2.6-2.2c-1.1-0.5-2.8,0.1-2.7,1.6c0.3,3.6,4.4,9.6,7.6,11.3
			c0.8,0.4,2,0.3,2.4-0.6c0.8-1.8,0.1-3.8-0.1-5.8c-0.2-1.8-0.1-3.9-0.8-5.6c-0.8-1.6-3.4-0.5-2.9,1.2c1.2,4.1,3.4,8.5,8.4,8.2
			c3.2-0.2,5.3-2.6,8.2-3.3c2.9-0.7,5-1.2,7.5-3.1c1.7-1.4-0.7-3.8-2.4-2.4c-2.7,2.3-6.1,2-9,3.8c-2.8,1.7-6,2.3-8.2-0.6
			c-0.7-0.9-1-2.2-1.3-3.3c-1,0.4-1.9,0.8-2.9,1.2c0-0.1,0.3,3,0.3,4c0.1,1,0.3,4,0.3,4c0.8-0.2,1.6-0.4,2.4-0.6
			c-1.9-1.1-5.6-6-5.7-8.3c-0.9,0.5-1.8,1-2.7,1.6c1.7,0.7,2.9,2.8,4.4,3.9c1.7,1.3,3.7,2.3,5.7,3c3,1,6.3,1.5,9.5,1.7
			c2.4,0.1,2.3-3.4,0-3.6c-1.6-0.1-3.8-0.2-5.2-0.9c-0.6-0.2-1.2-0.4-1.8-0.7c0.6-1.4,0.5-2.7-0.4-3.9c-0.2-0.7-0.4-1.4-0.6-2.1
			c-0.5-1.8-3.4-1.5-3.4,0.5c0,0.8,0.2,2.3,0,2.7c0.7-0.3,1.3-0.5,2-0.8c-2.2-0.5-6.1-5.2-3.7-7.2c-0.6,0.1-1.3,0.2-1.9,0.2
			c-0.6-0.3,0.2-0.5,0.1,0.6c-0.1,0.6,0.4,2,0.6,2.6c0.2,1,0.7,3.3,0.7,3.4c0.8-0.3,1.6-0.7,2.5-1c-0.8-0.6-3.4-7-3.9-9
			c-0.4-1.8-3.4-1.5-3.3,0.4c0.1,2.4,0.4,4.9,0.6,7.3c0.1,1.8,0.3,3.6,0.4,5.4c0.1,0.7,0,2.4,0.2,2.1c0.9,0,1.9,0,2.8,0
			c0.2,0.3-0.2-1-0.3-1.8c-0.2-1.6-0.4-3.2-0.6-4.8c-0.2-1.4-1-6.2-0.8-6.6c-0.8,0.1-1.6,0.2-2.4,0.3c1,1.1,2.3,6.7,2.3,8.9
			c0,4.8-3.4,0.9-4.2-1.5c-0.6-2-0.7-5-0.1-7.1c-1.1,0-2.3,0-3.4,0c0.4,3.1,0.5,9.1-1.4,11.8c0.9-0.1,1.8-0.2,2.7-0.4
			c-2.2-2.8-1.7-8.5-1.1-12.1c0.2-1.2,1-3.1-0.7-3.6C277.5,148.7,276.7,150.4,277.8,150.9L277.8,150.9z"/>
	</g>
</g>
<g>
	<g>
		<path d="M349.2,120.2c0.3,4.2,0.9,10.7,3.8,14.1c0.5,0.6,1.6,0.4,2-0.3c1.1-2.4,0.5-6.2,0.5-8.7c0-2.7,0.8-6.8-0.1-9.4
			c-0.5-1.5-3.1-1.4-3,0.4c0.3,3.3,2.9,7,4.2,10c1.3,2.8,2.4,7.8,5.1,9.6c0.5,0.4,1.5,0.3,2-0.3c3.8-4.7,2.6-16.1-3-19.2
			c-0.6-0.3-1.5-0.3-2,0.3c-2.1,2.3-2.4,7.1-2.4,10.1c-0.1,4.4,1.9,8.8,5.1,11.9c2.1,2,5.5,3.4,7.6,0.7c1.9-2.4,1-6.4,0.1-9
			c-1-2.9-2.9-6.3-6-7.6c-2.8-1.1-6-0.1-7,2.8c-1.8,5,3.7,19.8,10.8,16.3c5.7-2.8,0.4-14.3-3.4-16.8c-0.7-0.5-1.8-0.1-2.2,0.6
			c-2.9,5.1,1.5,21.1,9.6,17.5c5.4-2.4,4.2-15.1-1.9-16c-7.8-1.1-4.5,12.7-0.5,15.2c6.5,4.1,9-7.5,6.6-11.6
			c-0.5-0.8-1.6-1.1-2.4-0.6c-1.9,1.2-2.4,5.9-1.2,7.7c0.4,0.6,1.2,1,1.9,0.8c2.7-0.7,5.5-5.7,6.5-8.1c0.7-1.6-1.7-2.8-2.8-1.7
			c-2.1,2.2-6.3,8.1-3.1,10.8c3.7,3,8.6-3.8,9.6-6.9c0.4-1.4-1.3-2.7-2.5-1.9c-2.2,1.4-6.1,5.6-5.7,8.3c0.1,0.7,1,1.3,1.7,1.3
			c2.3-0.2,6.2-3.5,6.9-5.7c0.4-1.1-0.9-2.5-2-2c-2.3,1-5.7,5.3-5.8,7.8c-0.1,1.2,1.2,1.9,2.2,1.7c2.6-0.6,6.5-4.9,7.9-7.2
			c0.8-1.4-0.9-3.2-2.2-2.2c-1.7,1.1-4.3,3.1-5,5.1c-0.4,1.2,0.9,2.4,2,2c2.8-0.8,7.1-4.2,7.6-7.2c0.4-2.1-2.9-3.1-3.3-0.9
			c-0.3,1.8-3.5,4.3-5.2,4.9c0.7,0.7,1.4,1.4,2,2c0.1-0.3,2.5-2.6,3.4-3.2c-0.7-0.7-1.5-1.5-2.2-2.2c-0.7,1.1-2.2,2-3.1,2.9
			c-0.7,0.7-2.8,2.6-2.9,2.6c0.7,0.6,1.5,1.1,2.2,1.7c0-0.2,3.4-4.7,3.6-4.8c-0.8-0.6-1.6-1.2-2.4-1.9c0.1-0.2-1.6,1.2-2,1.6
			c-0.4,0.3-1.1,0.7-1.3,1.1c-0.6,1-1.2,0.4-0.3,0.4c0.6,0.6,1.2,1.2,1.7,1.7c0.1,0.6-0.9,0.6,0.3-0.3c0.6-0.5,1-1.2,1.4-1.8
			c0.7-0.9,1.4-2.2,2.3-2.8c-0.8-0.6-1.6-1.3-2.5-1.9c-0.4,1.4-3.7,5.2-3.9,4.6c-0.3-1.1,2.2-4.3,3-5.2c-0.9-0.6-1.9-1.1-2.8-1.7
			c-0.5,1.1-1.6,2.2-2.3,3.2c-0.5,0.7-1.3,1.4-1.6,2.2c-0.3,0.9-1.1,0.6-0.3,0.4c0.6,0.3,1.3,0.5,1.9,0.8c-0.1-0.2,0.1-1.4,0.2-1.9
			c0-0.5,0.1-0.9,0.1-1.4c0.2-1,0.1-0.9-0.3,0.3c-0.8-0.2-1.6-0.4-2.4-0.6c0.9,1.5,0.8,7.8-2.1,6.7c-2.8-1.1-2.9-11.6,0-7.1
			c2.1,3.3,0.3,11.5-3.9,5.9c-1.8-2.5-3.3-8.3-2-10.7c-0.7,0.2-1.5,0.4-2.2,0.6c1.1,0.7,5.2,8,4.3,9.9c-1.7,3.7-4.4-1.1-4.9-2
			c-0.6-1.2-1.1-2.6-1.5-4c-0.3-1-1-2.7-0.8-3.8c0.8-3.8,3-2.6,4.6-1c1.5,1.6,2.5,4.2,2.9,6.3c0.1,0.7,0.6,2.9,0,3.5
			c-1.5,1.6-3.8-1.9-4.3-2.7c-1.8-2.7-2.6-5.4-2.4-8.6c0.1-1.5,0.5-5.6,1.2-6.5c-0.7,0.1-1.3,0.2-2,0.3c3.9,2,4.6,11.3,2.4,14.1
			c0.7-0.1,1.3-0.2,2-0.3c-1.1-0.8-3-6.6-3.9-8.5c-0.9-1.9-1.8-3.9-2.8-5.8c-0.3-0.6-1.3-2.9-1.2-2.5c-1,0.1-2,0.3-3,0.4
			c0.8,2.1,0.2,5.8,0.2,8.1c0,2.3,0.8,6,0.1,8.2c0.7-0.2,1.4-0.4,2.1-0.5c-2.6-2.4-3.4-9.1-3.9-12.3
			C350.8,119.2,349.1,119.1,349.2,120.2L349.2,120.2z"/>
	</g>
</g>
<g>
	<g>
		<path d="M111.9,159.2c-1.1-2.2-3.9-3.9-5.9-1.9c-2.7,2.7-2.3,7.2-0.1,9.9c2,2.5,6.5,6,9.8,3.6c3.1-2.3,1-6.6-0.6-9.1
			c-1.7-2.6-5-6.2-8.5-5.5c-3.6,0.6-4.3,4.9-4,8c0.3,3.6,2.2,8.3,6.1,9.4c2.3,0.6,4-0.4,4.5-2.7c0.6-3-2.2-12.1-6.6-10.8
			c-6.5,1.9,0.1,15.8,6.3,14.5c5.3-1.1,4.8-13.5-0.1-14.7c-6.1-1.5-3.7,13.8,4.8,12c3.9-0.8,4.8-6.4,2.4-9.2
			c-2.5-2.7-6.3-0.7-6.9,2.6c-0.6,3.9,3.1,8.7,7.3,7.8c3.4-0.7,4.7-5.2,2.9-7.9c-0.6-0.9-1.9-1.1-2.7-0.3c-1.7,1.6-2.1,6.8,0.7,7.5
			c2.3,0.6,6.5-2.9,7.8-4.6c1-1.3-0.9-3.2-2.3-2.3c-1.7,1.2-4.9,4.6-5.2,6.7c-0.2,1.4,1.1,2.7,2.5,1.9c2.2-1.3,4.6-3.1,6.4-4.9
			c1.6-1.6-0.8-3.8-2.4-2.4c-2.8,2.3-5.9,5.9-9.5,6.8c0.7,0.9,1.4,1.8,2.1,2.7c0.5-1,1.8-2,2.6-2.8c0.1-0.1,2.3-1.7,2.3-1.7
			c-0.1-1.4-3.2,0.5-3.5,0.7c-1.4,0.6-3.2,1.6-4.8,1.3c-2.3-0.5-4.3-2.4-6.7-3c-2.2-0.6-3.1,2.7-0.9,3.4c3.7,1.2,6.4,4,10.3,2.8
			c2.4-0.7,7.7-2.5,8.2-5.3c0.6-2.8-2.2-3.6-4.3-2.9c-2.2,0.8-5.3,3.5-6.4,5.6c-0.7,1.4,0.5,3.2,2.1,2.7c4.2-1.3,7.7-5.2,10.9-8
			c-0.8-0.8-1.6-1.6-2.4-2.4c-1.5,1.6-3.7,3.4-5.7,4.5c0.8,0.6,1.6,1.3,2.5,1.9c0-0.4,2.5-3.9,3.6-4.7c-0.8-0.8-1.5-1.5-2.3-2.3
			c-0.2,0.3-3.5,1.7-4.1,2.7c-0.2,0.2-0.5,0.3-0.7,0.5c1.1,1,1.6,0.9,1.5-0.1c0.1-0.6,0.1-1.2,0.2-1.7c0.1-0.9,0.1-0.9,0-0.1
			c-0.9-0.1-1.8-0.2-2.7-0.3c0.2,0.5,0.3,0.9,0.2,1.4c-2.6,1-3.9,0.2-4.1-2.2c2.1-0.5,1.9-0.4-0.8,0.1c-1.6,1-2.5,0.8-2.7-0.8
			c-1.1-1.5-0.8-3,0-0.2c0.2,0.7,0.3,1.4,0.3,2.1c0.2,8.4-7.9-1.5-5.5-4c-0.6-0.4-0.6-0.4-0.1,0c0.2,0.2,0.4,0.5,0.6,0.8
			c0.4,0.8,0.9,1.5,1.2,2.3c0.4,0.9,1.5,3.8,0.2,3.9c-3.5,0.4-6.4-11-1.6-11.3c1.9-0.1,6.6,5.3,6.2,7.1c-0.9,0.6-1.8,1.1-2.8,1.7
			c-1-0.5-1.8-1.2-2.6-2c-1.6-1.3-2.1-3.2-1.6-5.6c0.3-1.7,1.7-1.9,4-0.7C111.4,160.2,112.2,159.8,111.9,159.2L111.9,159.2z"/>
	</g>
</g>
<g>
	<g>
		<path d="M216.2,288c-13.6-3-14.2,13.9-9,22.6c0.6,0.9,2.3,0.9,2.5-0.3c1-5.4-0.2-16.6-4.6-20.5c-0.6-0.5-1.3-0.4-1.8,0.2
			c-1.9,2.7-2.4,8.3-2.7,11.5c-0.3,3.7,0.2,9.8,2.6,12.8c0.5,0.6,1.5,0.5,2,0c4.5-4.9,2.7-16-1.2-20.7c-2-2.4-5.1-3-7-0.2
			c-1.6,2.3-1.4,6-1.1,8.6c0.4,3.5,2.7,15.4,8.7,12.1c5.2-2.9,2.8-15-0.1-18.7c-0.8-1-2.1-0.2-2.5,0.7c-2.2,5.4-1.1,16.8,4.4,20.1
			c0.6,0.3,1.4,0.3,1.9-0.2c3.3-3.4,2.9-11.5,0.3-15.2c-0.8-1.1-2.4-1-2.9,0.4c-0.7,2.3,1.1,6,1.7,8.3c0.6,2.2,0.7,5.9,2.8,7.3
			c0.7,0.5,1.9,0.2,2.2-0.6c1.7-3.6,0.5-10.5-1.1-13.9c-1-2.1-3-4.4-5.5-4.7c-3.2-0.3-4.3,3-6.4,4.6c0.9,0.2,1.7,0.4,2.6,0.7
			c-0.7-2.4,0.5-6.6,1.3-8.9c1-3.2,3-6.1,4.3-9.3c0.7-1.6-1.9-2.6-2.8-1.2c-2.3,3.9-4.7,8.8-4.6,13.4c0.1,4.2,0.9,11.2,3.7,14.6
			c0.7,0.9,2,0.4,2.5-0.3c1.5-2,2-5.7,2.5-8.1c0.6-3.5,0.6-7.1,0.8-10.6c-1,0-2.1,0-3.1,0c0,6.1,0.9,15.4,6.3,19.5
			c0.6,0.5,1.8,0.1,2.1-0.6c2-3.9,1.1-11.9-1.8-15.1c-0.7-0.7-1.8-0.5-2.3,0.3c-1.7,2.6-2.3,8.2-1.7,11.2c0.6,3,3.2,8.3,6.1,9.8
			c0.8,0.4,1.7,0.2,2.2-0.6c1.4-1.9,0.5-8.4-0.7-10.4c-0.6-1-2.2-1.1-2.7,0c-2.1,4.3,0.7,12.3,6.4,11.7c5.5-0.6,4.1-8.3,0.5-10.3
			c-5.7-3.2-9.5,5.1-4.9,9c5.5,4.7,14.1,0.2,13.8-7.1c-0.3-6.9-10.2-6.3-11.5-0.1c-1.1,5.2,5,9.7,9.6,7.1c3.1-1.7,6.4-9.9,1.3-11.2
			c-4.9-1.3-7.3,8.1-4.2,10.9c3.6,3.3,14.4-2.2,12.1-7.3c-2-4.3-7.2,2.3-8,4.5c-0.4,1.2,1,2.6,2.2,2.2c1.8-0.6,3.8-2.5,5.1-4
			c-0.8-0.8-1.6-1.6-2.4-2.4c-1.6,2-3.7,6.4-3.7,9c0,1.5,1.9,2.3,3,1.2c1.5-1.5,2.3-3.8,3.3-5.6c0.8-1.5,2.7-3.6,2.5-5.4
			c-0.1-1.1-1.4-2.2-2.5-1.4c-4.7,3.2-7.4,9.6-14,9.6c-2.5,0-2.5,4,0,3.9c3.5-0.1,7-2.1,9.7-4.3c2-1.6,4.6-5.4,6-6.4
			c-0.8-0.5-1.7-1-2.5-1.4c-0.1-0.4,0,0.5-0.5,1c-0.7,0.8-1.2,2.1-1.8,3.1c-0.8,1.3-1.5,3.3-2.7,4.4c1,0.4,2,0.8,3,1.2
			c0-1.4,2.5-6.3,2.6-6.5c1.4-1.7-1-4.1-2.4-2.4c-0.8,1-3.3,2.9-3.6,3c0.7,0.7,1.5,1.5,2.2,2.2c0.6-1.5,5-4.4,0.4-2.9
			c-1.5,0.5-4.9,4.2-5.7,0.9c-0.1-0.5,1.3-5,1.1-2.3c-0.2,2.3-2.4,4.4-4.8,3.3c-1.6-0.9-2.1-2.2-1.5-4c4.2,1.5,4.7,3.3,1.4,5.4
			c-4.5,1.3-5.9-0.2-4.1-4.4c2.2,1.8,1.4,2.3-2.5,1.5c-0.4-0.5-0.4-3.4,0-4.1c-0.9,0-1.8,0-2.7,0c0.2,0.4,0.9,6.7,0.6,7.2
			c0.7-0.2,1.5-0.4,2.2-0.6c-2-1.1-4.4-5.9-4.7-8c-0.3-2.2,0-6.8,1.2-8.7c-0.8,0.1-1.5,0.2-2.3,0.3c1.9,2.1,2.5,9.2,1.2,11.5
			c0.8-0.1,1.6-0.2,2.4-0.3c-1.9-1.5-3.6-6-4.3-8.1c-0.8-2.9-0.8-6-0.8-8.9c0-2-3-2-3.1,0c-0.2,3.1-0.2,6.3-0.7,9.4
			c-0.4,2.2-0.9,5.9-2.2,7.7c0.8-0.1,1.7-0.2,2.5-0.3c-1.6-1.9-2.9-10-2.8-12.9c0.1-3.9,2.2-8,4.1-11.3c-0.9-0.4-1.8-0.8-2.8-1.2
			c-2.3,5.7-7.4,13.1-5.5,19.8c0.3,1.2,1.7,1.4,2.6,0.7c0.2-0.2,0.5-0.6,0.7-0.8c0.4-0.5,0.8-1,1.2-1.5c1.3-0.1,2.6-0.1,3.8-0.2
			c1.6,1,2,4.6,2.2,6.3c0.2,1.6,0.4,5.7,0.1,6.4c0.7-0.2,1.5-0.4,2.2-0.6c0.8,0.6,0.1-0.1-0.2-1.2c-0.4-1.6-0.8-3.1-1.3-4.7
			c-0.4-1.4-0.8-2.9-1.2-4.3c-0.2-0.7-0.4-2.2-0.5-1.8c-1,0.1-1.9,0.2-2.9,0.4c1.8,2.6,2.4,9.1,0.2,11.4c0.6-0.1,1.3-0.2,1.9-0.2
			c-4-2.4-4.8-12.5-3.1-16.6c-0.8,0.2-1.7,0.4-2.5,0.7c1.6,2.1,2.6,7.9,1.9,10.7c-0.5,1.9-1.7,3-3.3,1.6c-0.6-0.5-0.9-2-1.1-2.7
			c-0.5-1.6-0.9-3.3-1.2-4.9c-0.2-1.2-0.2-2.3-0.2-3.4c0.1-1.8,0-5.2,3.8-2.5c1.1,0.7,1.4,3.2,1.7,4.4c0.9,3.2,1.6,8.9-0.9,11.7
			c0.7,0,1.3,0,2,0c-1.9-2.2-2.3-8.4-2.1-11.2c0.2-2.6,0.6-7.8,2.1-10c-0.6,0.1-1.2,0.2-1.8,0.2c3.6,3.1,4.4,13.8,3.5,18.2
			c0.8-0.1,1.7-0.2,2.5-0.3c-4.2-7.1-5.3-21.8,6.4-20.2C216.6,289.2,217,288.2,216.2,288L216.2,288z"/>
	</g>
</g>
<g>
	<g>
		<path d="M198.5,364.3c-8.6,7.6-0.2,24,6.7,29.7c1.1,0.9,2.9,0.1,2.5-1.5c-1.3-4.9-4.7-9-5.9-14.1c-1-4.2-1.1-8.7-1.2-13
			c-0.1-2.1-3.2-2.1-3.2,0c-0.1,5,0.4,10.4,1.9,15.1c1.6,5.1,6.9,13.1,12.8,13.9c5.9,0.9,3.4-5.9,1.6-8.4c-2.2-3.2-6.6-7-10.2-8.7
			c-1-0.5-2.7,0.3-2.2,1.7c2.1,5.5,8.6,10.3,13.5,13.2c1.6,0.9,3.2-1.2,1.9-2.5c-3.3-3.4-7-6.4-10.2-9.9c-4.2-4.5-6.1-9.3-9.1-14.6
			c-0.8-1.4-3.1-0.8-3.1,0.8c0,6.1,3.6,13.6,7.4,18.2c2.3,2.8,6.4,6.9,9.9,8.1c1,0.4,2.2-0.6,2.1-1.6c-0.1-3.6-3-8.3-4.6-11.4
			c-1.8-3.3-4.2-7.4-6.9-10c-1.2-1.2-3,0-2.7,1.6c0.8,4.6,4.1,10.2,6.9,13.8c2.2,2.9,6.5,7.3,10,8.3c1,0.3,2.1-0.5,2.1-1.6
			c0-3.6-2.8-9.2-4.8-12.1c-1.6-2.3-3.7-4.3-5.5-6.5c-1-1.3-2.1-3.1-3.8-3.5c-0.9-0.2-1.9,0.4-1.9,1.4c0.3,4.5,4.2,10,7.2,13.2
			c2.4,2.6,7.3,8.6,11.4,8.4c0.7,0,1.3-0.5,1.5-1.2c1.7-6.2-4.7-13.9-10.4-15.3c-1-0.2-1.7,0.4-1.8,1.4c-0.6,4.9,7.7,17.7,13.4,13
			c4.5-3.7-3.2-11.3-6.8-12.4c-0.9-0.3-2,0.5-1.9,1.5c0.3,3.8,4.3,10.6,8.4,11.2c5.8,0.8,4.4-7.9,2.4-10.8c-0.7-1.1-2.8-1.1-3.1,0.4
			c-0.5,2.8,0.5,7.3,3,8.9c4.1,2.6,7.9-2.2,7.5-6.1c-0.4-4.1-4.9-7.5-8.7-4.7c-3.6,2.6-2.4,8.7,0.8,11c9.9,7.2,17.7-15,5.8-12.8
			c-5.6,1-9.2,8.4-6.5,13.6c2.9,5.5,9.9,2.1,12.8-1.4c3.4-4.1,4.2-12.3-3.2-11.8c-3.1,0.2-5.3,2-7.1,4.4c-2,2.7-5.1,5.9-6.1,9.1
			c-0.3,1.1,0.8,2.5,2,2c2.9-1.1,6.8-1.7,9.3-3.7c1.5-1.2-0.4-3-1.8-2.4c-3.2,1.4-6.8,3.3-10.4,2.9c0.3,1,0.5,1.9,0.8,2.9
			c4.3-3.1,9.9-4.5,13.4-8.8c2.4-2.8,3.9-8.1,3.9-11.8c0-1.2-1.8-2.2-2.6-1.1c-1.6,2-3.9,6.7-3.8,9.3c0.1,1.8,2.4,2,3,0.4
			c0.9-2.3,2.2-4.5,3-6.8c-0.9-0.1-1.7-0.2-2.6-0.3c-0.2,2-0.5,3.9-0.3,5.9c0.1,1.4,2.2,1.5,2.2,0c0-1.2-0.1-2.4-0.1-3.6
			c0-1.3-2-1.3-2,0c0,1.2,0,2.4-0.1,3.6c0.7,0,1.5,0,2.2,0c-0.1-1.9,0.3-3.7,0.7-5.6c0.3-1.3-1.7-2.4-2.4-1c-1.1,2.4-2.6,4.6-3.6,7
			c1,0.1,2,0.3,3,0.4c0-0.7,1.9-5.7,3-7.1c-0.9-0.4-1.7-0.7-2.6-1.1c-0.1,4-2.1,9-5.1,11.5c-3.3,2.7-7.4,3.9-10.7,6.4
			c-1.3,0.9-0.8,2.8,0.8,2.9c4.2,0.4,8.3-1.8,12-3.4c-0.6-0.8-1.2-1.6-1.8-2.4c-1.2,1-5.8,1.8-8,2.6c0.7,0.7,1.4,1.4,2,2
			c0.5-1.7,2.3-3.4,3.4-4.9c1.6-2.2,3.1-5.6,6.1-6c5.6-0.8,1.8,6.4-0.8,7.9c-8.2,4.7-5.9-7.3-2.7-7.6c1.2,0.6,2.4,1.2,3.6,1.8
			c-0.3,0.8-0.7,1.4-1.2,2c-0.7,0.9-1.8,2.1-3,2.3c-1.9,0.2-3.2-1.1-3.5-2.8c-0.3-1.6,0.9-5.7,3.3-1.5c1.2,2-1.6,5-2.9,1.4
			c-0.3-0.8-0.7-2.1-0.5-2.9c-1,0.1-2.1,0.3-3.1,0.4c0.5,0.7,0.8,1.7,0.9,2.5c0.4,2.8-0.7,3.3-2.5,1c-1-1.3-3.1-3.9-3.2-5.6
			c-0.6,0.5-1.3,1-1.9,1.5c1.6,0.5,7.7,6.5,3.9,6.8c-2.9,0.2-7.1-7.9-6.9-10.3c-0.6,0.5-1.2,0.9-1.8,1.4c1.7,0.4,5,3.2,6.1,4.4
			c1.4,1.5,2.6,5.3,2,7.4c0.5-0.4,1-0.8,1.5-1.2c-2.7,0.1-7.6-5.8-9.2-7.5c-2.3-2.5-6.2-8-6.5-11c-0.6,0.5-1.2,0.9-1.9,1.4
			c0.9,0.2,2,2.2,2.6,2.9c1.5,1.9,3.4,3.7,4.7,5.7c1.7,2.5,4.4,7.5,4.3,10.6c0.7-0.5,1.4-1,2.1-1.6c-2.5-0.8-7.3-5.7-9.1-8.4
			c-2.2-3.2-4.8-7.7-5.5-11.5c-0.9,0.5-1.8,1.1-2.7,1.6c2.3,2.2,4.3,5.6,5.8,8.3c1.6,2.8,4.6,7.5,4.7,10.8c0.7-0.5,1.4-1.1,2.1-1.6
			c-1.7-0.6-6.1-4.8-7.9-6.7c-3.6-4-7-10.8-7-16.3c-1,0.3-2.1,0.6-3.1,0.8c2.9,5.1,4.7,9.8,8.7,14.2c3.5,3.8,7.6,7.1,11.2,10.8
			c0.6-0.8,1.3-1.7,1.9-2.5c-4.5-2.5-10.2-6.7-12.4-11.6c-0.6,0.7-1.1,1.5-1.7,2.2c2.6,1,5.5,3.8,7.4,5.7c0.7,0.7,3.4,3.7,3,4.7
			c-0.5,1.5-4.7-2.2-5.1-2.6c-6.1-5.8-7.2-14.4-7-22.4c-1.1,0-2.1,0-3.2,0c0.1,4.1,0.2,8.3,1,12.4c1.1,5.8,4.5,10.1,6.4,15.5
			c0.7-0.6,1.5-1.1,2.2-1.7c-6.5-4.5-14.9-19.3-7.6-26.4C200,364.6,199.1,363.8,198.5,364.3L198.5,364.3z"/>
	</g>
</g>
<g>
	<g>
		<path d="M347.8,278.7c-2.8,2.3-3.3,5.1-3.6,8.6c-0.5,5-1.5,10.1-0.8,15.2c0.9,6,5.9,15,13.2,13.6c1.5-0.3,1.5-2.7,0-3
			c-7.1-1.3-10.3-8-10.8-14.6c-0.4-5.2-1-15,3-18.7C349.5,279.1,348.5,278.2,347.8,278.7L347.8,278.7z"/>
	</g>
</g>
<g>
	<g>
		<path d="M348,302.3c-0.2,7.4,5.7,13.5,12.1,16.4c1.4,0.6,3.2-1.2,1.8-2.3c-2.6-2-5.4-3.2-7.7-5.7c-2.6-2.7-3.8-4.7-4.1-8.5
			C350,301,348.1,301,348,302.3L348,302.3z"/>
	</g>
</g>
<g>
	<g>
		<path d="M346.9,301c-4.7-0.8-3,4.5-1.8,7c1,2.2,2.4,3.7,4.4,5.2c1.6,1.1,3.3,2.1,5.1,2.8c1.8,0.8,3.9,0.9,5.7,1.9
			c1.2,0.7,2.7-1.1,1.5-2c-1.5-1.2-3.1-1.7-5-2.2c-2.8-0.8-6-2.2-8.2-4.3c-1.1-1.1-5.3-7.4-1.9-7.1
			C347.5,302.3,347.6,301.1,346.9,301L346.9,301z"/>
	</g>
</g>
<g>
	<g>
		<path d="M354.8,313.7c3.6,3,7.9,3.2,12.4,3.3c4.4,0,8.9-0.1,11.9-3.7c1-1.2-0.6-3-1.8-1.8c-4.1,4.2-16.9,4.4-21.5,0.9
			C355,311.8,354,313.1,354.8,313.7L354.8,313.7z"/>
	</g>
</g>
<g>
	<g>
		<path d="M213.1,284.9c-0.9-2.5-2.9-2.6-5.3-1.6c-4,1.7-6,5.9-6.9,9.9c-1.2,5.1-1.9,11.7-0.8,16.9c1.1,4.7,5.6,7.3,9.1,10.1
			c1.8,1.4,4.4-0.9,2.7-2.7c-1.9-1.9-4.3-3.2-6-5.2c-2.6-2.9-2.3-7.1-2.3-10.8c0-3.4,0.2-6.9,1.3-10.2c0.4-1.4,5.5-10.3,7.9-6.3
			C212.9,285.2,213.2,285.1,213.1,284.9L213.1,284.9z"/>
	</g>
</g>
<g>
	<g>
		<path d="M212.2,317.2c-2.3,8.1-3.2,16.8-4.5,25.1c-0.5,3.4-1.2,6.7-1.8,10.1c-0.3,1.7-0.9,3.4-0.5,5.1c0.4,1.8,2.7,1.8,3.6,0.5
			c0.3-0.5,0.4-1,0.4-1.5c0.2-1.5-2.1-2.4-3-1.3c-0.4,0.4-0.3,0.4,0.4-0.1c0.8,0.8,1.6,1.6,2.4,2.4c1.7-4.6,2.1-10.5,2.6-15.4
			c0.8-8.2,1-16.5,1.8-24.7C213.7,316.6,212.4,316.5,212.2,317.2L212.2,317.2z"/>
	</g>
</g>
<g>
	<g>
		<path d="M221.1,320.6c-1.7,1.7-1.3,3.6-1.3,5.8c0,4.1,0.2,8.1,0.8,12.2c0.9,5.5,3,15.2,8.7,17.9c1.9,0.8,3.5-1.2,2.2-2.8
			c-3.6-4.1-6.2-8.9-7.7-14.2c-0.7-2.6-1.3-5.4-1.6-8.1c-0.3-2.5-1.3-7.8,0-10.1C222.6,320.7,221.7,320,221.1,320.6L221.1,320.6z"/>
	</g>
</g>
<g>
	<g>
		<path d="M45.6,305.6c-9.9-6.4-24.7-2.5-28,9.4c-2.9,10.4,4.3,21.9,14.3,25.2c10.8,3.5,26.2-0.1,28.7-12.7c2.6-13-8.7-24-21.2-24
			c-10.9,0-21.4,9.8-18.6,21.3c0.5,2,3.4,1.5,3.5-0.5c0.3-6,1.7-11.8,7.5-14.9c2.8-1.5,5.8-2,8.9-1.8c6.3,0.4,11.9,3.7,14.5,9.6
			c3.4,7.4,0.9,15.8-6.9,18.7c-10.4,3.9-23-0.3-26.6-11.3c-4.4-13.8,11-24,23-17.5C45.7,307.6,46.6,306.2,45.6,305.6L45.6,305.6z"/>
	</g>
</g>
<g>
	<g>
		<path d="M18.5,128.9c-5.2,0-10.5,2.4-13.5,6.7c-2.5,3.8-3.1,8.5-5.1,12.4c1.4,0.4,2.7,0.7,4.1,1.1c-0.4-3.3,0.5-7.3,1.1-10.6
			c1.3-6.8,4.5-11.5,11.9-12.4c8.3-1,21,1.2,23.6,10.3c0.8,2.8,1,5.8,1.3,8.7c0.3,3,1.6,7.5,0.3,10.4c-2,4.6-10.7,6-15,7.8
			c-4.9,2-8.6,1.7-11.5-3.1c-1.9-3.2-3.2-7-3.9-10.6c-1.2-5.9-2.6-19.1,2.4-23.8c-1.2-0.5-2.5-1-3.7-1.5c-0.4,3.4-3.8,5.8-5.1,8.9
			c-1.3,3-2.2,6.3-3,9.4c-2.1,7.7-1.6,17.3,5.6,22.2c7.5,5.1,18,2.2,25.8-0.5c7.4-2.5,12.4-9.4,12.9-17.1c0.1-1.8-2.7-2.2-3.2-0.4
			c-2.1,8.1-6.2,12.7-14.3,14.9c-7.9,2.2-19.1,4.7-23-5.1c-2.7-6.8-0.1-14.2,2.4-20.7c1.6-4,5.5-6.7,6.3-11.1
			c0.4-2.2-1.9-3.6-3.6-2.1c-5.1,4.3-5,13.6-4.9,19.5c0.1,7.6,1.7,15.4,6,21.8c3.8,5.6,9.6,6.7,15.7,4.2c5.1-2.1,11.9-3.7,15.9-7.7
			c4.8-4.7,2.3-12.2,1.6-18.1c-0.6-4.8-1.2-9.4-4.7-13.1c-6.3-6.6-18.1-8.6-26.8-6.9c-6.4,1.3-10.8,5.5-12.6,11.8
			c-1.3,4.4-2.6,10.4-2.1,15.1c0.2,1.9,3.1,3.3,4.1,1.1c3.7-7.9,3.7-17.6,14.8-18.9C20,131.3,20.1,129,18.5,128.9L18.5,128.9z"/>
	</g>
</g>
<g>
	<g>
		<path d="M129.6,145.9c-0.6,2.2-1.2,4.7-1.1,7c0.1,1,1.5,1,1.6,0c0.3-2.2,0.3-4.4,0.8-6.7C131.1,145.4,129.8,145,129.6,145.9
			L129.6,145.9z"/>
	</g>
</g>
<g>
	<g>
		<path d="M133.6,145.7c-0.8-0.2-1.2,0.1-1,0.9c-0.1,0.8-0.3,1.6-0.6,2.4c-0.3,1.3-0.6,1.8-0.5,3c0,0.6,0.9,1.1,1.4,0.6
			c1.3-1.6,1.5-4,2.7-5.6c-0.4-0.7-0.5-0.7-0.4-0.2c0.1,0.6,0.1,1.2,0.2,1.8c0.1,0.6,0.2,1.1,0.2,1.7c0.1,0.4,0.7,0.5,0.9,0.1
			c1.1-2.4,3.2-4.4,4.2-6.8c-0.3-0.1-0.7-0.2-1-0.3c0.1,0.7,0.2,1.1,0.6,1.7c0.2,0.2,0.4,0.3,0.7,0.3c1.2-0.3,2.8-2.6,2.7-3.2
			c0.1,0.5,0.6,0.5,1,0.4c1.1-0.4,2-1.8,2.8-2.5c0.9-0.9,2.3-3.4,1.9-1.2c-0.1,0.6,0.5,1.1,1.1,0.8c0.4-0.2,5.7-3.9,5.6-3.9
			c0.1,0.2,0.4,0.4,0.7,0.3c1.8-0.4,2.6-2.9,4.2-3.8c2-1,6.5-1.8,8.5-2c0.6-0.1,0.6-1,0-0.9c-2.1,0.1-3.6,0.8-5.6,1.3
			c-0.9,0.2-2.2,0-3,0.3c-0.8,0.3-2.1,2-2.7,2.6c-1.3,1.2-0.8,1.4-1.6,0.5c-0.2-0.2-0.6-0.3-0.8-0.1c-2.1,1.2-3.8,3.3-6,4.4
			c0.4,0.3,0.7,0.5,1.1,0.8c0.1-0.8,0-1.5-0.3-2.3c-0.1-0.3-0.5-0.6-0.9-0.5c-1.6,0.5-2.7,2.2-3.8,3.3c-0.2,0.2-2,2.3-0.9,1.7
			c0.2-0.1-0.7-0.6-0.7-0.6c-0.2-0.1-0.5,0-0.6,0.2c-1,0.9-2.3,3.7-2.7,2.2c-0.1-0.5-0.9-0.6-1.1,0c-0.5,2-2.3,4.4-3.6,6
			c-0.5,0.5,0.6,0.8,0.4,0c-0.3-1-0.3-2.3-0.5-3.4c-0.1-0.4-0.6-0.4-0.8-0.1c-1.2,1.9-1.8,4.1-3.4,5.7c0.5,0.2,0.9,0.4,1.4,0.6
			c0.2-2.4,1.3-4.6,1.1-7.1c0-0.4-0.3-0.7-0.7-0.7c-0.4,0-0.6,0.1-0.9,0.4C131.9,145.4,132.9,146.4,133.6,145.7L133.6,145.7z"/>
	</g>
</g>
<g>
	<g>
		<path d="M109.4,174.2c-0.1,11.5,1.3,22.9,1.2,34.3c-0.1,5.9-0.3,11.8,0.2,17.7c0.6,6.3,1.4,12.5,1.7,18.9c0,1.2,1.9,1.2,1.9,0
			c0.2-6.4-1-12.6-1.5-18.9c-0.5-5.9-0.2-11.8-0.3-17.7c-0.1-11.5-2.2-22.7-2.5-34.3C110.1,173.8,109.4,173.8,109.4,174.2
			L109.4,174.2z"/>
	</g>
</g>
<g>
	<g>
		<path d="M282.7,174.1c-0.8,4-1.1,8-1.3,12.1c-0.1,1,1.5,1,1.5,0c-0.2-4,0.1-8,0.6-12C283.6,173.8,282.8,173.7,282.7,174.1
			L282.7,174.1z"/>
	</g>
</g>
<g>
	<g>
		<path d="M282.4,166.4c-1.6,6.4-0.2,12.4-0.7,18.9c-0.3,4.2,0.6,7.5,0.9,11.7c0.3,3.7,0,7.5-0.1,11.2c-0.2,7.6-0.5,15.3,0.6,22.8
			c1.1,8.4,0,16.9,0.6,25.4c0.1,1.6,2.4,1.6,2.5,0c1.2-15.6-0.8-30.9-0.6-46.5c0.1-3.7,0.4-7.4,0.2-11.2c-0.2-3.4-1.2-6.6-1.5-9.9
			c-0.3-3.4,0.2-6.7-0.3-10.1c-0.6-4.2-1.1-7.6-0.2-11.9C284,165.9,282.6,165.5,282.4,166.4L282.4,166.4z"/>
	</g>
</g>
<g>
	<g>
		<path d="M187.1,42.1c-0.5-0.1-1-0.1-1.5-0.2c-0.4-0.1-0.8,0.1-0.9,0.5c-0.5,2.2,0.9,5.3,1.3,7.4c1.1,5.1,1.7,10.3,3,15.3
			c0.2,0.9,1.7,0.7,1.6-0.2c-0.3-4.8-1.8-9.8-2.9-14.5c-0.5-2-1-3.9-1.4-5.9c-0.3-1.6-0.8-1.1,0.7-1.3
			C187.8,43.1,187.8,42.2,187.1,42.1L187.1,42.1z"/>
	</g>
</g>
<g>
	<g>
		<path d="M186.4,42.6c0,16,5.6,31.2,7,47c0.1,1.5,2.3,1.5,2.3,0c0.2-7.3-2.1-14.5-3.8-21.5c-2.1-8.4-4-16.8-4.1-25.5
			C187.8,41.8,186.4,41.8,186.4,42.6L186.4,42.6z"/>
	</g>
</g>
<g>
	<g>
		<path d="M200.3,41.6c-1.4,3.4-1.4,6.8-1.3,10.4c0.1,4.3-0.1,8.7,0,13c0.1,4.5,0.7,9.1,1.2,13.6c0.2,1.7,0.4,3.4,1.1,5
			c0.7,1.7,1.9,2.7,2.2,4.7c0.3,1.6,2.5,1,2.6-0.4c0.3-2.9-2.2-5.2-2.9-8c-1-4.4-1.4-9.5-1.7-14c-0.3-4.2-0.3-8.3-0.5-12.5
			c-0.3-3.9-0.6-7.7,0.8-11.5C202.2,41.1,200.7,40.7,200.3,41.6L200.3,41.6z"/>
	</g>
</g>
<g>
	<g>
		<path d="M103.5,171.7c0.8,8,4.2,15.4,5.6,23.3c0.1,0.8,1.5,0.6,1.5-0.2c-0.4-8-4.7-15.2-5.6-23.1
			C104.8,170.8,103.4,170.8,103.5,171.7L103.5,171.7z"/>
	</g>
</g>
<g>
	<g>
		<path d="M102.9,175.5c-0.2,5.1,1.9,10.1,2.8,15.1c1.1,5.9,2.8,11.6,4,17.5c1.3,6.1,2.8,12.3,3.1,18.6c0.2,5.7-0.8,11.5-0.1,17.2
			c0.1,1.1,1.9,1.6,2.1,0.3c1.5-10.8,0.4-21.4-1.8-32c-1.3-5.9-3.2-11.6-4.6-17.5c-1.5-5.9-4.3-13.1-4.2-19.2
			C104.1,174.7,102.9,174.7,102.9,175.5L102.9,175.5z"/>
	</g>
</g>
<g>
	<g>
		<path d="M119.1,168.3c0,15.5,2.2,30.8,4.7,46.1c1.2,7.4,2.7,14.8,4.1,22.2c0.8,4.5,0.6,11.4,4.3,14.6c0.9,0.8,2.7-0.3,1.8-1.4
			c-3-4.2-3-10.7-3.9-15.6c-1.4-7.1-2.8-14.2-4.1-21.3c-2.7-14.7-4.9-29.5-5.1-44.5C120.9,167.1,119.1,167.1,119.1,168.3
			L119.1,168.3z"/>
	</g>
</g>
<g>
	<g>
		<path d="M232.5,288.8c0.6,2.4,2,4.6,2.6,7.1c0.4,1.7,0.5,3.6,1,5.3c0.3,1.2,2.4,1.4,2.6,0c0.4-2.7-1-6.3,0-8.8
			c-0.7,0.2-1.4,0.4-2.1,0.5c1.6,1.5,1.9,6.1,3.1,8.4c0.7,1.3,2.6,0.6,2.7-0.7c0.1-2.2,0-4.5,0.4-6.7c-1,0-2,0-2.9,0
			c0.6,2.6,0.5,7.8-0.2,10.4c1.1,0,2.2,0,3.3,0c0-0.2,0.5-2.8,0.8-3.8c-1.1,0-2.2,0-3.3,0c0,0.2-0.9,4.2-1.4,5.4
			c1.1,0.3,2.1,0.6,3.2,0.9c0.1-1.3,0.8-3.7,1.4-4.7c-1.1-0.3-2.1-0.6-3.2-0.9c0.4,3.4-1.1,6.7-4.2,8.3c0.8,0.8,1.6,1.6,2.4,2.4
			c3.1-5,8.1-9.9,7.9-16.4c-0.1-3.9-3.6-5.7-6-8.3c-3.1-3.4-7-4.9-10.7-7.5c-1.4-1-3.2,1.3-1.9,2.4c4.9,4.3,16.3,7.6,14.6,15.8
			c-0.9,4.7-4.9,8-6.9,12.1c-0.7,1.4,0.8,3.4,2.4,2.4c3.9-2.5,6.2-6.6,5.9-11.3c-0.1-1.7-2.2-2.3-3.2-0.9c-1.2,1.6-1.8,4.5-1.9,6.5
			c-0.1,2.1,2.7,2.1,3.4,0.5c0.9-2.1,2-5.4,1.6-7.6c-0.3-1.8-2.8-1.4-3.3,0c-0.5,1.6-1.2,3.9-0.8,5.6c0.4,1.6,2.9,1.7,3.3,0
			c0.7-3.3,0.7-8.8-0.1-12.1c-0.4-1.4-2.7-1.5-2.9,0c-0.4,2.5-0.3,5-0.3,7.5c0.9-0.2,1.8-0.5,2.7-0.7c-1.5-2.4-1.6-6.9-3.9-8.7
			c-0.7-0.6-1.8-0.4-2.1,0.5c-0.8,2.8,0.3,5.9-0.2,8.8c0.9,0,1.7,0,2.6,0c-1.4-3.9-1.7-9.9-5.8-12
			C232.7,288.4,232.4,288.6,232.5,288.8L232.5,288.8z"/>
	</g>
</g>
<g>
	<g>
		<path d="M282.4,137.5c0.5,0,0.5-0.8,0-0.8C281.9,136.6,281.9,137.5,282.4,137.5L282.4,137.5z"/>
	</g>
</g>
<g>
	<g>
		<path d="M295.3,140.6c0.7,0,0.7-1.1,0-1.1C294.7,139.6,294.7,140.6,295.3,140.6L295.3,140.6z"/>
	</g>
</g>
<g>
	<path class="st0" d="M137.5,140.9c-0.7,2.6-1.9,7-1.9,7c-0.1,0.5-0.1,0.6,0.2,0.1l6.5-12.9c0.2-0.5,0.4-0.4,0.3,0.1l-1.7,7.9
		c-0.1,0.5-0.1,0.6,0.2,0.1l6.5-12.7c0.3-0.5,0.4-0.4,0.3,0.1l-2.5,10.6c-0.2,0.5-0.1,0.5,0.1,0l5.8-12.1c0.3-0.5,0.5-0.4,0.4,0.1
		l-1.2,6.9c-0.2,0.5-0.1,0.5,0.1,0l5.1-9.5c0.3-0.5,0.5-0.4,0.5,0.2c0,0,0,5-0.8,7.9"/>
</g>
<g>
	<path class="st0" d="M160.8,123.4c-0.6,3.5-1.7,9.5-1.7,9.5c-0.1,0.5,0,0.6,0.1,0l5-13.8c0.2-0.5,0.4-0.5,0.4,0.1l-0.9,9.3
		c-0.1,0.5-0.1,0.5,0.1,0l6-13.1c0.3-0.5,0.4-0.4,0.3,0.1l-2.8,12.3c-0.1,0.5-0.1,0.6,0.2,0l6.4-12.4c0.3-0.5,0.5-0.4,0.4,0.2
		l-1.9,9.7c-0.2,0.5-0.1,0.6,0.2,0.1l6.1-12.2c0.2-0.5,0.4-0.4,0.3,0.1l-1.7,7.6c-0.2,0.5-0.1,0.5,0.1,0c0,0,1.9-4.7,3-7.5
		c0.2-0.4,0.4-0.8,0.8-0.8s0.1,0.9-0.1,0.6"/>
</g>
<g>
	<path class="st0" d="M138.2,266.1c0,4,2.4,10.5,2.4,10.5c0.2,0.5,0.4,0.5,0.6,0l1.5-10.2c0.1-0.5,0.1-0.5,0.2,0l2.1,10.4
		c0.2,0.5,0.4,0.5,0.5,0l0.4-6.4c0-0.5,0.1-0.6,0.2,0l2.1,7.4c0.1,0.5,0.4,0.5,0.6,0l0.9-6.6c0-0.5,0-0.6,0.1,0l1.5,7.8
		c0.1,0.5,0.4,0.5,0.5,0l0.9-5.4c0-0.5,0.1-0.6,0.2,0l2,8.3c0.2,0.5,0.5,0.5,0.6,0l0.7-8c-0.1-0.5-0.1-0.5-0.1,0l1.7,9.1
		c0.2,0.5,0.4,0.5,0.5,0l1.6-8.1c0.1-0.5,0.3-0.5,0.4,0l2.6,9.5c0.2,0.5,0.4,0.5,0.5,0l1.5-7.9c0.1-0.5,0.2-0.5,0.2,0l1.3,8
		c0.2,0.5,0.4,0.5,0.5,0l2.1-8.9c0.1-0.5,0.3-0.5,0.3,0l2.7,10.6c0.2,0.5,0.5,0.5,0.7,0l3.7-8.9c0.2-0.5,0.5-0.5,0.5,0.1l1.6,11.6
		c0.1,0.5,0.3,0.6,0.5,0l2.9-9.9c0.1-0.5,0.3-0.5,0.3,0l1.1,13.1c0,0.5,0.2,0.6,0.3,0l4.1-13.5c0.2-0.5,0.4-0.5,0.4,0.1l0.5,10.8
		c0,0.5,0.1,0.6,0.3,0l2.4-8.6c0.2-0.5,0.4-0.5,0.6,0l2.1,9.1c0.1,0.5,0.3,0.6,0.5,0l3-9.5c0.2-0.5,0.4-0.5,0.5,0
		c0,0,0.8,3.8,1.9,5.9"/>
</g>
<g>
	<path class="st0" d="M285.8,173.9c-1.2,1.9-1,5.5-1,5.5c0,0.5,0.1,0.6,0.2,0l1.1-7.8c0.1-0.5,0.1-0.5,0.1,0l0,16.9
		c0,0.5,0.1,0.6,0.2,0l2.6-13.2c0.1-0.5,0.2-0.5,0.2,0l0,18.9c0,0.6,0,0.6,0,0l0-20.1c0-0.6,0-0.6,0,0l-0.6,24.4
		c0,0.5-0.1,0.5-0.1,0l-0.3-25c0-0.5,0-0.6-0.1,0l-0.4,25c0,0.5,0,0.5,0,0l-0.3-24.4c0-0.5,0-0.6-0.1,0l-1.2,36.2c0,0.5,0,0.5,0,0
		l0-34.5c0-0.6,0-0.6,0.1,0l0.5,45.8c0,0.5,0,0.5,0,0l1.7-40.6c0.1-0.5,0.1-0.5,0.1,0c0,0-0.6,30.1-1.7,45.6c-0.1,1.2-1,2.1-1,2.1
		c-0.4,0.4-0.7,0.3-0.7-0.3l0.8-37.5c0-0.5,0.1-0.5,0.1,0l0.6,44.1c0,0.5-0.1,0.5-0.1,0l0.8-39.3c0-0.5,0.1-0.5,0.1,0l0.4,44.3
		c0,0.6,0,0.5,0,0l0-33.7c0-0.6,0-0.6,0,0l0.8,37.1c0,0.5,0,0.5,0,0l-0.2-30.9c0-0.5,0-0.6,0,0l-0.1,35.1c0,0.5,0,0.5,0.1,0
		l-0.6-25.5c0-0.5-0.1-0.5-0.1,0l1.4,26.1c0.1,0.5,0.2,0.5,0.2,0l-0.5-17.4c0-0.5-0.1-0.5-0.1,0l1.4,14.6c0.1,0.5,0.1,0.5,0.1,0
		l-1.4-12.8c-0.1-0.5-0.1-0.5-0.1,0l1.5,17.4c0.1,0.5,0.1,0.5,0.1,0l-1.5-20.7c-0.1-0.5-0.1-0.5-0.1,0l2.5,16.1
		c0.1,0.5,0.3,0.5,0.3,0l-1.6-11.5c-0.2-0.5-0.3-0.5-0.2,0l2.7,13.2c0.2,0.5,0.3,0.5,0.3-0.1l-2.6-12c-0.2-0.5-0.4-0.5-0.4,0.1
		c0,0,0,5.2,1.7,7.6"/>
</g>
<g>
	<path class="st0" d="M109.4,181.8c-1.1,0.1-2.1-0.8-2.1-0.8c-0.4-0.4-0.7-0.2-0.8,0.3l0.9,10.8c0.1,0.5,0.2,0.5,0.2,0l0.2-12
		c0-0.5,0.1-0.6,0.1,0l3.4,16.4c0.2,0.5,0.3,0.5,0.2,0l-2-13.1c-0.1-0.5-0.1-0.5,0,0l4.3,21.7c0.1,0.5,0.2,0.5,0.1,0l-2.7-24.5
		c0-0.5,0-0.5,0,0l4.1,28.8c0.1,0.5,0.1,0.5,0.1,0l-3-26.3c-0.1-0.5-0.1-0.5-0.1,0l3.1,35.1c0.1,0.5,0.1,0.5,0.1,0l-2.3-25.8
		c-0.1-0.5-0.1-0.5-0.1,0l3,29c0.1,0.5,0.1,0.5,0,0l-4.1-30.1c-0.1-0.5-0.1-0.5,0,0l3.6,38.4c0.1,0.5,0,0.6-0.1,0l-4.8-29.3
		c-0.1-0.5-0.1-0.5,0,0l5.4,35.9c0.1,0.5,0.2,0.5,0.2,0l-1.5-25.4c-0.1-0.5-0.1-0.5,0,0l3.7,29.6c0.1,0.5,0.1,0.5,0.1,0l-2.2-22.4
		c-0.1-0.5-0.1-0.5,0,0l2.7,21c0.1,0.5,0.1,0.5,0.1,0l-2-17.2c-0.1-0.5-0.2-0.5-0.2,0l0,21.4c0,0.6,0,0.6-0.1,0l-0.7-17.9
		c0-0.5,0-0.5,0,0l0,16.1c0,0.6,0,0.6-0.1,0l-1.3-12.2c-0.1-0.5-0.1-0.5-0.1,0l0.1,14.3c0,0.5,0,0.6-0.1,0l-1.2-11.8
		c-0.1-0.5-0.1-0.5-0.1,0l-0.1,13.6c0,0.5,0,0.5,0,0c0,0,0-9,0-14"/>
</g>
<g>
	<path class="st0" d="M122.3,238.7c1.6,0.5,3.8,0.7,3.8,0.7c0.5,0.1,0.6-0.1,0.1-0.4l-12.2-6.4c-0.5-0.3-0.5-0.3,0,0l13.7,5.2
		c0.5,0.2,0.6,0,0.2-0.4l-14.1-11.1c-0.5-0.3-0.4-0.4,0.1-0.2l11.1,4c0.5,0.2,0.6,0.1,0.1-0.2l-16.1-12.3c-0.4-0.3-0.3-0.5,0.2-0.3
		l11.4,4.2c0.5,0.2,0.6,0,0.3-0.4l-11.8-14.4c-0.3-0.4-0.2-0.5,0.2-0.2l10.4,7c0.5,0.3,0.5,0.2,0.1-0.1L105.7,200
		c-0.4-0.4-0.3-0.5,0.2-0.2l12.1,6.5c0.5,0.3,0.6,0.2,0.2-0.2l-13-15.2c-0.3-0.4-0.2-0.6,0.2-0.3l11.4,7.1c0.5,0.3,0.5,0.2,0.2-0.2
		l-12.4-14c-0.4-0.4-0.3-0.5,0.2-0.2l12.2,8.1c0.5,0.3,0.7,0.1,0.5-0.4l-3.9-8.5c-0.3-0.5-0.1-0.7,0.4-0.4c0,0,4.3,2.1,6.7,3.7"/>
</g>
<g>
	<path class="st0" d="M289.3,238.8c3.3,2,9.6,4.6,9.6,4.6c0.5,0.2,0.6,0.1,0.2-0.3l-11.6-10.9c-0.4-0.4-0.3-0.5,0.1-0.2l5.6,2.4
		c0.5,0.1,0.7-0.1,0.5-0.6l-6.1-10.6c-0.3-0.5-0.1-0.6,0.4-0.4l6.8,2.5c0.5,0.1,0.7-0.1,0.4-0.6l-9.5-12c-0.3-0.4-0.3-0.5,0.2-0.2
		l8.3,4.8c0.5,0.2,0.7,0,0.4-0.5l-8.8-15.3c-0.3-0.5-0.1-0.7,0.4-0.4l7.9,3.3c0.5,0.2,0.8-0.1,0.6-0.6l-6.4-14.8
		c-0.2-0.5-0.1-0.7,0.4-0.4l7.6,4.7c0.5,0.3,0.7,0.1,0.5-0.4l-7.1-16.5c-0.3-0.5-0.1-0.6,0.4-0.3l8,5.3c0.5,0.3,0.6,0.2,0.4-0.3
		c0,0-3.9-7.3-6.1-11.3"/>
</g>
</svg>
