<?xml version="1.0" encoding="utf-8"?>
<!-- Generator: Adobe Illustrator 19.1.0, SVG Export Plug-In . SVG Version: 6.00 Build 0)  -->
<svg version="1.1" id="Layer_1" xmlns="http://www.w3.org/2000/svg" xmlns:xlink="http://www.w3.org/1999/xlink" x="0px" y="0px"
	 viewBox="0 0 300 300" style="enable-background:new 0 0 300 300;" xml:space="preserve">
<style type="text/css">
	.st0{fill:none;stroke:#ffffff;stroke-width:2;stroke-miterlimit:10;stroke-dasharray: 1900;stroke-dashoffset: 1900; animation: dash 2s linear forwards;}
	@keyframes dash {
  to {
    stroke-dashoffset: 0;
  }
}
</style>
<g>
	<path class="st0" d="M151.2,149.6c-5.5-5.2-11-10.3-16.5-15.5c-12.3-11.5-25.5-24.6-27.8-42.1c-0.9-7.2,0.1-14.5,2.1-21.5
		c4-13.4,12.1-25.8,23.6-32.4s26.5-6.7,37.1,1.5c10.6,8.3,15.2,22.9,17.9,36.8c1.3,6.5,2.3,13.2,0.9,19.6c-1.2,5.8-4.3,11-7.2,16
		c-8.6,14.4-17.6,29.3-31.1,38.1"/>
</g>
<g>
	<path class="st0" d="M137,43.8c-10.4,6.6-25,25.6-25,25.6c-0.3,0.4-0.3,0.5,0.1,0.1l27.6-26.1c0.4-0.4,0.5-0.3,0.1,0.1l-29.1,37.6
		c-0.3,0.4-0.3,0.5,0,0l30.7-35.3c0.4-0.4,0.4-0.4,0.1,0.1l-33.2,43.9c-0.3,0.4-0.3,0.5,0,0l40.8-46.3c0.4-0.4,0.4-0.4,0.1,0.1
		l-33.9,45.8c-0.3,0.4-0.3,0.4,0,0l40.1-44.7c0.4-0.4,0.4-0.3,0.1,0.1l-41.8,53.2c-0.3,0.4-0.3,0.5,0,0L158,49.3
		c0.4-0.4,0.5-0.3,0.2,0.1l-36,50.9c-0.3,0.4-0.3,0.4,0,0l39.3-47.8c0.4-0.4,0.4-0.4,0,0l-43.9,55.6c-0.3,0.4-0.3,0.4,0,0l48.4-53.4
		c0.4-0.4,0.5-0.3,0.1,0.1l-41,55c-0.3,0.4-0.3,0.4,0,0l39.5-49.5c0.4-0.4,0.4-0.4,0.1,0.1l-38.8,55c-0.3,0.4-0.3,0.4,0,0l47.9-53.8
		c0.4-0.4,0.4-0.4,0.1,0.1l-43,56.8c-0.3,0.4-0.3,0.5,0,0l48.8-49.9c0.4-0.4,0.4-0.3,0.1,0.1l-44.2,52.3c-0.3,0.4-0.3,0.4,0,0
		l42.2-44.7c0.4-0.4,0.4-0.3,0.1,0.1l-39.6,47.5c-0.3,0.4-0.3,0.4,0,0l41.6-41.5c0.4-0.3,0.5-0.3,0.1,0.1L139,131.4
		c-0.3,0.4-0.3,0.4,0,0l41-39.2c0.4-0.4,0.4-0.3,0,0L140.8,132c-0.4,0.4-0.4,0.4,0,0l39.5-33.9c0.4-0.3,0.5-0.3,0.1,0.1l-35.6,40.3
		c-0.4,0.4-0.3,0.4,0,0l32-31.9c0.4-0.4,0.4-0.3,0.1,0.1l-29.1,32.5c-0.4,0.4-0.4,0.4,0,0l19.5-19c0.4-0.4,0.5-0.3,0.3,0.2
		l-14.1,23.9c-0.3,0.5-0.3,0.4-0.1-0.1c0,0,3.9-7.5,6-11.6"/>
</g>
<g>
	<path class="st0" d="M148.3,151.6c-8.5,9.3-16.3,19.3-23,30c-5.6,8.7-10.6,18.1-12.3,28.3c-1.7,10.2,0.3,21.5,7.2,29.1
		c6.3,6.9,15.7,10,24.7,12.3c8.9,2.3,18.5,4,27,0.6c11.2-4.5,17.3-16.8,19.2-28.7c2.4-15.3-0.7-31.4-8.7-44.6
		c-7.9-13.3-20.7-23.6-35.3-28.7"/>
</g>
<g>
	<path class="st0" d="M151.2,160.2c-0.2-1.8-0.5-4.4-0.5-4.4c-0.1-0.5-0.5-0.7-0.9-0.3l-18.3,16.7c-0.4,0.4-0.4,0.4,0,0l18.4-16
		c0.4-0.4,0.5-0.3,0.1,0.1l-22.3,26.4c-0.4,0.4-0.4,0.4,0,0l26.6-25.5c0.4-0.4,0.5-0.3,0.1,0.1l-26.3,28.1c-0.4,0.4-0.4,0.4,0,0
		l24.3-21.9c0.4-0.4,0.5-0.3,0.1,0.1l-31.5,37.3c-0.4,0.4-0.4,0.4,0,0l35.3-37.1c0.4-0.4,0.4-0.3,0.1,0.1l-39.8,47.3
		c-0.3,0.4-0.4,0.4,0,0l41.7-42.8c0.4-0.4,0.5-0.3,0.1,0.1l-37.4,46.8c-0.3,0.4-0.3,0.4,0,0l40.3-44.2c0.4-0.4,0.4-0.4,0.1,0.1
		l-42.4,54.7c-0.3,0.4-0.3,0.4,0,0l39.6-47.6c0.4-0.4,0.4-0.4,0.1,0.1l-33.5,48.6c-0.3,0.5-0.3,0.4,0,0l42.6-54.5
		c0.4-0.4,0.4-0.4,0.1,0.1l-45.4,62.4c-0.3,0.4-0.3,0.4,0,0l45.8-53.5c0.4-0.4,0.4-0.4,0.1,0.1l-39.4,54.8c-0.3,0.4-0.3,0.4,0,0
		l46.9-56c0.4-0.4,0.4-0.4,0.1,0.1l-36.2,50.6c-0.3,0.4-0.3,0.4,0,0l33.9-44.6c0.4-0.4,0.4-0.4,0,0l-36.6,51.6c-0.3,0.5-0.3,0.5,0,0
		l41.6-49c0.4-0.4,0.4-0.4,0.1,0.1l-36.6,52.2c-0.3,0.5-0.3,0.5,0,0l38.5-47c0.4-0.4,0.4-0.4,0.1,0.1l-36.4,50.5
		c-0.3,0.4-0.3,0.4,0,0l36.7-44.6c0.4-0.4,0.4-0.4,0.1,0.1l-29,42.2c-0.3,0.5-0.3,0.5,0,0l33.7-38.2c0.4-0.4,0.4-0.3,0.1,0.1
		l-31.3,40.8c-0.3,0.4-0.3,0.5,0,0l37.5-40.5c0.4-0.4,0.5-0.3,0.1,0.1l-27.9,39.3c-0.3,0.4-0.3,0.5,0.1,0.1l23.1-25.4
		c0.4-0.4,0.4-0.4,0.1,0.1L168.5,246c-0.3,0.4-0.2,0.5,0.2,0.2l13.7-12.7c0.4-0.4,0.4-0.4,0,0l-9.8,10.5c-0.4,0.4-0.3,0.5,0.2,0.3
		l9.2-5.6c0.5-0.3,0.5-0.2,0.2,0.2l-4,5c-0.3,0.4-0.4,0.4,0,0c0,0,0.7-0.9,1.3-1.7"/>
</g>
<g>
	<path class="st0" d="M153.8,149.9c11.4-17.1,24.7-33,40.8-42s35.7-10.2,50.6,1c3.5,2.7,6.8,6,9.2,10.3c6,10.6,5.4,26.5-1.3,36.5
		c-4.6,6.9-11.3,10.8-17.9,13.7c-14.6,6.4-30.4,9.1-45.4,5.2c-15-3.8-29.1-14.6-37.3-30.9"/>
</g>
<g>
	<path class="st0" d="M148.2,146.6c-14.3-14.8-30.2-28-47.7-34s-36.9-3.6-49.6,10.2c-3,3.3-5.6,7.2-7.2,11.8
		c-4,11.5-0.5,27,7.9,35.7c5.7,5.9,13,8.6,20.1,10.3c15.5,3.7,31.5,3.4,45.6-3s26-19.6,31.1-37.1"/>
</g>
<g>
	<path class="st0" d="M150.8,144.5c-7.7-6.7-15.5-13.3-23.2-20c-4.2-3.6-8.5-7.3-11.6-11.9c-3.5-5-5.4-10.9-7-16.8
		c-3.3-12.4-4.8-26.1,0.8-37.6c7.8-16.1,28.1-23.2,45.7-20.1c13.6,2.5,26.8,11,31.6,24c4.9,13.2,0.3,28-5.2,40.9
		c-6.5,15.4-14.5,30.3-24.9,43.4"/>
</g>
<g>
	<path class="st0" d="M155.7,150.6c10.5-22.7,30.5-40.8,54.1-48.9c7.1-2.4,15-4,22-1.2c3.1,1.2,5.8,3.2,8.2,5.5
		c12.2,11.6,16.1,31.2,9.2,46.7c-6.9,15.4-24.1,25.6-40.9,24.2c-9-0.7-17.5-4.4-25.8-8c-10-4.4-29.1-12.7-29.1-12.7
		c-0.5-0.2-0.5-0.3,0-0.1c0,0,7.8,2.4,11.4,5.2"/>
</g>
<g>
	<path class="st0" d="M144.1,149.8c-6.8,7.8-13.6,15.8-17.8,25.3c-5.5,12.2-6.4,25.9-7.2,39.3c-0.5,7.7-0.9,16,2.9,22.7
		c4.4,8,13.5,11.7,22,14.2c7.9,2.3,16.6,4.1,23.9,0.2c4.4-2.4,7.7-6.6,10.1-11.1c7.6-14,8-31.4,3.1-46.6s-14.5-28.3-25.9-39"/>
</g>
<g>
	<path class="st0" d="M147.2,146.4c-3.7-7.9-9.2-15-16.1-20.8c-11-9.4-25.7-15.1-40.5-15.2s-29.7,5.5-39.8,15.7
		c-4.2,4.2-7.6,9.3-8.5,14.9c-1.1,6.9,1.5,14,6,19.6s10.5,9.9,16.8,13.6c5.1,3,10.4,5.7,16.2,6.9c11.1,2.3,22.6-1.1,32.8-5.9
		c14.7-6.9,27.9-16.8,38.5-28.7"/>
</g>
<g>
	<path class="st0" d="M198.2,42.8c-0.5-1.4-2.6-1.5-3.7-0.5s-1.3,2.6-1.3,4.1c0,0.9,0.3,2.1,1.2,2.3c1.2,0.3,2-1.1,2.4-2.3
		c1.1-4.2,0.6-11.8,0.6-11.8c0-0.5-0.1-0.5-0.1,0c0,0-0.1,5.9,0.3,9.4c0.1,1.1,0.3,2.3,1.2,3.1c0.9,0.7,2.5,0.5,2.7-0.7"/>
</g>
<g>
	<path class="st0" d="M204.6,40.4c1.9,2.1,4.2,3.9,6.6,5.3"/>
</g>
<g>
	<path class="st0" d="M208.3,38.9c-1,2.9-2,5.8-3,8.6"/>
</g>
<g>
	<path class="st0" d="M208.1,31.4c-0.4-1,0.9-2.1,1.9-1.8c1,0.3,1.6,1.6,1.4,2.7c-0.1,1.1-0.8,2.1-0.8,2.1c-0.3,0.5-0.1,0.8,0.4,0.7
		c0,0,2.1-0.4,3.6-0.7"/>
</g>
<g>
	<path class="st0" d="M216,43.8c2.1-0.3,4.1-0.5,6.2-0.8"/>
</g>
<g>
	<path class="st0" d="M230.1,42c-1.1-0.8-2.7-0.1-3.4,1.1c-0.7,1.2-0.6,2.6-0.5,3.9c0,0.7,0.2,1.6,0.8,2c1.3,0.8,2.6-1,2.9-2.5
		c1-4.9,0-14,0-14c-0.1-0.5-0.1-0.5-0.1,0c0,0,0.2,11,3.1,16.2"/>
</g>
<g>
	<path class="st0" d="M237,42.6c-0.2,1-0.4,2.1,0,3.1c0.4,1,1.7,1.6,2.5,0.9c0.5-0.4,0.6-1,0.7-1.6c0.2-1.7,0.1-4,0.1-4
		c0-0.5,0-0.6,0.1,0c0,0,1.3,9.4,2,14.7c0.1,0.7,0.2,1.5,0,2.2c-0.2,0.7-0.9,1.3-1.6,1.2c-0.7-0.1-1.2-1.2-0.6-1.6"/>
</g>
<g>
	<path class="st0" d="M238.6,29.6c0.9-1.3,3.1-0.3,3.5,1.2c0.4,1.5-0.7,3.5-0.7,3.5c-0.3,0.5,0,0.9,0.5,0.9c0,0,2.3,0.1,3.3-1.2"/>
</g>
<line class="st0" x1="144.4" y1="35.4" x2="144.4" y2="22.3"/>
<line class="st0" x1="258.5" y1="139.3" x2="270.9" y2="139.3"/>
<line class="st0" x1="42" y1="144.1" x2="27" y2="144.1"/>
<line class="st0" x1="152.5" y1="253.9" x2="152.5" y2="269.5"/>
</svg>
