<?xml version="1.0" encoding="utf-8"?>
<!-- Generator: Adobe Illustrator 19.1.0, SVG Export Plug-In . SVG Version: 6.00 Build 0)  -->
<svg version="1.1" id="Layer_1" xmlns="http://www.w3.org/2000/svg" xmlns:xlink="http://www.w3.org/1999/xlink" x="0px" y="0px"
	 viewBox="0 0 300 300" style="enable-background:new 0 0 300 300;" xml:space="preserve">
<style type="text/css">
<!-- 	.st0{fill:none;stroke:#ffffff;stroke-width:2;stroke-miterlimit:10;} -->


			.st0{fill:none;stroke:#ffffff;stroke-width:2;stroke-miterlimit:10;stroke-dasharray: 2500;stroke-dashoffset: 2500; animation: dash 2s linear forwards;}
	@keyframes dash {
  to {
    stroke-dashoffset: 0;
  }
}
</style>
<g>
	<path class="st0" d="M143.7,154.4c0.3-8.8,0.6-17.7,0.9-26.5c0.7-19.8,2.1-41.4,15.7-56.9c5.6-6.4,12.9-11.1,20.6-14.7
		c14.9-6.9,32.1-9.2,46.8-4.1c14.7,5.1,26.4,18.2,27.3,33.9c0.9,15.8-8.5,31-18.7,44.1c-4.7,6.1-9.9,12.1-16.6,15.9
		c-6.1,3.4-13,4.7-19.7,6c-19.3,3.5-39.4,7-57.6,1.9"/>
</g>
<g>
	<path class="st0" d="M226.1,60.3c-13.9-4.1-42-2.3-42-2.3c-0.5,0-0.5,0.1,0,0.1l44.6,4.3c0.5,0.1,0.5,0.2,0,0.2l-56,3.3
		c-0.5,0.1-0.5,0.1,0,0.1l55.1-0.1c0.5,0,0.5,0.1,0,0.1l-64.7,4.6c-0.5,0.1-0.5,0.1,0,0l72.6,0.3c0.5,0,0.6,0.1,0,0.1l-66.9,5.4
		c-0.5,0-0.5,0,0,0l70.7,1c0.5,0.1,0.5,0.1,0,0.1L160,81.6c-0.5,0-0.5,0.1,0,0.1l77.6,1.4c0.5,0,0.6,0.1,0,0.2l-73,7.5
		c-0.5,0-0.5,0,0,0l72.8-2.2c0.5,0,0.5,0,0,0l-83.2,4.1c-0.5,0-0.5,0,0,0l84.7,1.6c0.5,0.1,0.5,0.1,0,0.2l-80.5,6.3
		c-0.5,0-0.6,0,0,0l74.4-3.4c0.5,0,0.6,0.1,0,0.1l-78.8,8.2c-0.5,0.1-0.5,0.1,0,0l84.7,0.8c0.5,0,0.5,0.1,0,0.1l-83.6,5.9
		c-0.5,0-0.5,0.1,0,0l82,4.6c0.5,0.1,0.5,0.1,0,0.1l-80.6,1.3c-0.5,0-0.5,0,0,0l72.3,2.8c0.5,0.1,0.5,0.1,0,0.1l-72.7,1.7
		c-0.5,0-0.5,0,0,0l69,4.7c0.5,0.1,0.5,0.2,0,0.2l-74.9,1.6c-0.5,0-0.5,0.1,0,0l66.6,6c0.5,0.1,0.5,0.1,0,0l-65.7-4
		c-0.5,0-0.5,0,0,0l60.7,8.8c0.5,0.1,0.5,0.2,0,0.2l-63.3-0.3c-0.5,0-0.5,0,0,0l53.1,3.6c0.5,0.1,0.5,0.1,0,0.1l-51.5-0.7
		c-0.5,0-0.6,0,0,0l32.1,2.6c0.5,0.1,0.6,0.2,0,0.4l-32.3,6c-0.5,0.1-0.6,0,0-0.1c0,0,9.7-2.4,15.1-3.7"/>
</g>
<g>
	<path class="st0" d="M139.7,153.3c-14.8-0.4-29.6,0.5-44.2,2.8c-12,1.8-24.1,4.6-34.4,11S42.4,183.9,41,196
		c-1.2,10.9,3.2,21.5,8.2,31.3c4.8,9.6,10.7,19.4,20.2,24.3c12.6,6.4,28.2,2.3,40.1-5.2c15.3-9.7,27.1-24.8,32.7-42
		c5.6-17.2,4.9-36.4-1.9-53.2"/>
</g>
<g>
	<path class="st0" d="M134.4,162.5c1.4-1.6,3.6-3.9,3.6-3.9c0.4-0.4,0.2-0.8-0.3-0.9l-29.2-3.3c-0.5-0.1-0.5-0.1,0,0l28.6,4
		c0.5,0.1,0.5,0.2,0,0.2l-40.8,0.7c-0.5,0-0.6,0,0,0l43.3,3.9c0.5,0.1,0.5,0.1,0,0.1l-45.4-1.5c-0.5,0-0.6,0,0,0l38.4,4.6
		c0.5,0.1,0.5,0.1,0,0.2l-57.5,1c-0.5,0-0.5,0,0,0l60.2,2.6c0.5,0.1,0.5,0.1,0,0.1l-72.7,1.4c-0.5,0-0.5,0,0,0l70.2,3.8
		c0.5,0.1,0.5,0.2,0,0.2l-70.4,3.1c-0.5,0-0.5,0,0,0l70.4,1.5c0.5,0,0.5,0.1,0,0.1l-81.3,4.8c-0.5,0-0.5,0.1,0,0l72.8-1.8
		c0.5,0,0.6,0.1,0,0.1l-69,7.9c-0.5,0.1-0.5,0.1,0,0l81.2-4.4c0.5,0,0.6,0,0,0.1l-90.4,8c-0.5,0-0.5,0,0,0l82.9-0.8
		c0.5,0,0.6,0.1,0,0.1l-79,7.5c-0.5,0.1-0.5,0,0,0l85.9-1.9c0.5,0,0.6,0.1,0,0.1L63,207.3c-0.5,0.1-0.5,0,0,0l65.8-4.6
		c0.5,0,0.6,0,0,0.1l-74.1,7.5c-0.5,0.1-0.5,0.1,0,0l75.7-1c0.5,0,0.6,0.1,0,0.1l-74.6,7.9c-0.5,0.1-0.5,0.1,0,0l71.5-2.3
		c0.5,0,0.6,0.1,0,0.1L54.4,222c-0.5,0.1-0.5,0,0,0l67.9-2c0.5,0,0.6,0.1,0,0.1l-60,7c-0.5,0.1-0.5,0.1,0,0.1l60,0.3
		c0.5,0,0.5,0.1,0,0.1l-60.4,3.9c-0.5,0-0.5,0.1,0,0l64.9,1.9c0.5,0,0.5,0.1,0,0.2l-56.5,5.8c-0.5,0.1-0.5,0.1,0,0.1l40.6,0.9
		c0.5,0,0.6,0.1,0,0.1l-39.1,3.5c-0.5,0-0.6,0.2,0,0.3l22.1,2.4c0.5,0,0.6,0,0-0.1l-17.1-0.6c-0.5,0-0.6,0.2-0.1,0.4l12.4,3.9
		c0.5,0.1,0.5,0.3,0,0.3l-7.9,0.3c-0.5,0-0.6,0,0,0c0,0,1.4-0.1,2.7-0.2"/>
</g>
<g>
	<path class="st0" d="M145.5,156.9c23.9-3.1,48.1-3.7,68.5,3.6c20.4,7.3,36.5,23.6,38.1,45.5c0.4,5.2-0.1,10.7-2,16.1
		c-4.7,13.4-19.2,25.1-33.3,27c-9.6,1.3-18.2-1.6-25.9-5.2c-16.9-7.9-31.4-19.8-39.6-36s-9.6-36.9-1.5-56.7"/>
</g>
<g>
	<path class="st0" d="M144.1,149.5c2-24,1.4-48.3-6.8-68.3C129,61.2,112,45.8,90,45.2c-5.2-0.1-10.7,0.6-16,2.7
		c-13.2,5.4-24.2,20.3-25.4,34.5c-0.8,9.6,2.5,18.1,6.5,25.7c8.7,16.5,21.3,30.5,37.8,37.9s37.3,7.9,56.7-1.1"/>
</g>
<g>
	<path class="st0" d="M147.9,150.1c-0.1-12-0.2-23.9-0.3-35.9c-0.1-6.5-0.1-13.1,1.5-19.4c1.8-6.9,5.5-13.2,9.5-19.1
		c8.4-12.4,19.3-24.3,33.7-28.3c20.2-5.5,42.2,6.9,52.9,24.8c8.3,13.9,11,32.1,3.2,46.3c-7.9,14.5-24.4,21.8-40.1,27
		c-18.6,6.1-37.9,10.6-57.5,11.5"/>
</g>
<g>
	<path class="st0" d="M146.3,159.2c28.1-8.3,59.5-4.5,84.8,10.1c7.6,4.4,15,10.2,18,18.4c1.3,3.7,1.6,7.6,1.4,11.5
		c-0.8,19.8-15.1,38.3-34,44.1s-41.1-1.5-52.9-17.4c-6.3-8.5-9.6-18.8-12.8-28.9c-3.9-12.2-11.3-35.6-11.3-35.6
		c-0.2-0.5-0.1-0.5,0.1,0c0,0,3.9,8.9,4.2,14.2"/>
</g>
<g>
	<path class="st0" d="M138.1,148.2c-12.1,0-24.4,0.2-36.1,3.8c-14.9,4.6-27.8,14.4-40.2,23.9c-7.2,5.5-14.8,11.6-17.8,20
		c-3.6,10.1,0.1,20.9,4.4,30.3c4,8.7,9.2,17.8,18.3,21.2c5.5,2,11.7,1.7,17.5,0.4c18.2-4.1,33.9-17.2,43.5-33.2s13.8-34.6,14.5-52.9
		"/>
</g>
<g>
	<path class="st0" d="M143.5,148.4c4.1-9.4,6.1-19.7,6-30.2c-0.2-17-6.5-34.2-17.8-47.4s-27.8-22-44.5-23c-6.9-0.4-14,0.5-19.7,4
		C60.4,56,56.2,63.9,54.7,72.1S54,89,55.6,97.4c1.3,6.8,3,13.6,6.4,19.7c6.5,11.6,18.4,19.1,30.5,24.3c17.5,7.7,36.3,11.7,54.9,11.8
		"/>
</g>
<g>
	<line class="st0" x1="193.1" y1="153.2" x2="276.1" y2="153.2"/>
</g>
<g>
	<line class="st0" x1="102.9" y1="155.1" x2="21.6" y2="155.1"/>
</g>
<g>
	<line class="st0" x1="145.4" y1="276.6" x2="145.4" y2="26.4"/>
</g>
<g>
	<path class="st0" d="M163.2,29.9c-1.1-1.2-2.9-1.7-4.5-1.2c-1.5,0.5-2.7,2.1-2.7,3.7c0,0.8,0.2,1.6,0.8,2.2c1.5,1.4,3.9,0,5-1.7
		c2.7-4.1,2.3-13.2,2.3-13.2c0-0.5-0.1-0.5-0.1,0c0,0-0.4,7.4-0.6,11.5c-0.1,1.1-0.1,2.2,0.5,3.1c0.6,0.9,2,1.4,2.7,0.6"/>
</g>
<g>
	<path class="st0" d="M169,28.3c2.1,0.6,3.4,2.7,5.1,4.2s4.8,2,5.8,0"/>
</g>
<g>
	<path class="st0" d="M175.6,25.7c-1.5,3.3-2.9,6.5-4.4,9.8c-0.1,0.3-0.2,0.7,0,0.9c0.3,0.2,0.5-0.5,0.2-0.4"/>
</g>
<g>
	<path class="st0" d="M180.8,27.3c2.2-0.3,5.6-0.7,5.6-0.7c0.5-0.1,0.7,0.2,0.3,0.6l-5.1,7.3c-0.2,0.5-0.1,0.6,0.3,0.3
		c0,0,1.8-1.4,3.4-1.3c1.6,0.1,3.8,0.8,3.8,0.8c0.5,0.2,1-0.1,1-0.7c0,0,0-0.2,0.1-0.8"/>
</g>
</svg>
