<?xml version="1.0" encoding="utf-8"?>
<!-- Generator: Adobe Illustrator 19.1.0, SVG Export Plug-In . SVG Version: 6.00 Build 0)  -->
<svg version="1.1" id="Layer_1" xmlns="http://www.w3.org/2000/svg" xmlns:xlink="http://www.w3.org/1999/xlink" x="0px" y="0px"
	 viewBox="0 0 300 300" style="enable-background:new 0 0 300 300;" xml:space="preserve">
<style type="text/css">
<!-- 	.st0{fill:none;stroke:#ffffff;stroke-width:2;stroke-miterlimit:10;} -->
	.st0{fill:none;stroke:#ffffff;stroke-width:2;stroke-miterlimit:10;stroke-dasharray: 2500;stroke-dashoffset: 2500; animation: dash 4s linear forwards;}
	@keyframes dash {
  to {
    stroke-dashoffset: 0;
  }
}
</style>
<g>
	<path class="st0" d="M164.9,50.1c-9.2-7.9-23-13.3-33.2-6.6c-7.6,5-10.4,14.7-11.8,23.8c-2.1,13.1-2.5,27.1,2.9,39.1
		c5.4,12.1,17.7,21.6,30.7,20c8.2-1,15.7-6.4,20.2-13.5c4.5-7.1,6.4-15.8,6.2-24.2c-0.2-10.8-3.6-21.5-10.3-29.9
		s-16.4-14.2-26.9-15.1c-4.6-0.4-9.5,0.1-13.3,2.8c-3,2.1-5.2,5.2-6.9,8.5c-10.3,19.5-7,45.6,7.9,61.7c3.8,4.1,8.4,7.6,13.8,8.6
		c7.7,1.4,15.5-2.8,21.3-8.2c12.3-11.5,18.5-29.4,16.3-46.3c-1.4-10.4-6-20.6-14-27.3s-19.6-9-29-4.7c-8.2,3.8-13.8,11.9-17.5,20.3
		c-4.6,10.6-6.9,22.6-3.9,33.8c2,7.2,6,13.6,10.6,19.4c5.2,6.5,11.6,12.6,19.7,14.1c8.2,1.5,16.7-2,23-7.5
		c8.5-7.3,13.9-18.1,14.8-29.3s-2.7-22.8-9.8-31.4"/>
</g>
<g>
	<path class="st0" d="M162.2,172.6c-5-3.2-10.3-6.5-16.2-6.5c-10.6,0-18.2,10.5-21.8,20.7c-4.7,13.5-5.4,28.3-2,42.1
		c2.9,11.8,10.4,24.1,22.2,25.8c8.7,1.3,17.3-3.7,23.6-10c12.2-12.2,18.7-31.1,13.8-47.8s-22.3-29.3-39.1-26
		c-11.1,2.2-20.7,11.1-23.9,22.2c-4.2,14.6,2.3,30.1,10.5,42.7c3,4.6,6.7,9.3,11.9,11.1c8.3,2.7,16.9-3.1,22.9-9.6
		c8.2-9,14.5-20.2,16.3-32.3s-1.5-25.3-10-34c-8.4-8.7-22.3-12.1-33.1-6.8c-7.3,3.5-12.6,10.4-16.4,17.6
		c-5.4,10.2-8.3,22.1-6.2,33.5c1.4,7.7,5.1,14.8,9.5,21.2c5.5,7.9,13,15.3,22.4,16.2c4.4,0.4,8.9-0.6,13-2.3c15-6,26.6-21,27.9-37.4
		c1.3-16.4-8.3-33.4-23.3-39.6c-10.5-4.3-24.1-2.6-31.2,6.5c-3.5,4.5-5.1,10.2-6.3,15.9c-2.9,13.6-3.9,28.8,3.2,40.6"/>
</g>
<g>
	<path class="st0" d="M131.6,121.3c-12.1-0.3-24.3,5.7-31.7,15.5c-2.3,3.1-4.3,7.1-3.5,10.9c1.4,6.2,8.7,8.5,14.9,9.6
		c23.6,4,47.8,6.3,71.3,1.4c3.1-0.6,6.3-1.4,8.9-3.3c8-5.6,7-19,0.3-26.1c-6.7-7.1-25.5-10.4-25.5-10.4c-0.5-0.1-0.6,0,0,0.2
		c0,0,25.9,8.9,26.5,22.5c0.2,4.4-1,9.2-4.3,12.2c-2.8,2.4-6.5,3.2-10.1,3.8c-9.9,1.7-31.1-0.3-38.7,6.2c-4.2,3.6-7,16.2-9.4,21.4
		c-3.6,7.6-10,21.9-10,21.9c-0.2,0.5-0.2,0.5,0.1,0l24.2-37.1c0.3-0.4,0.4-0.4,0.1,0.1L126.2,214c-0.2,0.5-0.2,0.5,0,0l24.6-43.2
		c0.3-0.5,0.4-0.4,0.2,0.1l-23.1,56.6c-0.2,0.5-0.3,0.5,0,0l28.4-49.8c0.3-0.4,0.4-0.4,0.2,0.1l-22.5,54.6c-0.2,0.5-0.2,0.5,0,0
		l27.1-53.9c0.3-0.5,0.4-0.4,0.2,0.1l-24.4,65c-0.3,0.5-0.3,0.5-0.1-0.1l28.1-61.3c0.3-0.5,0.3-0.5,0.2,0.1l-22.7,58
		c-0.2,0.5-0.3,0.5-0.1,0l28.2-56.7c0.3-0.5,0.4-0.4,0.2,0.1l-20.3,56.3c-0.2,0.5-0.3,0.5-0.1,0l23.4-50.9c0.3-0.5,0.4-0.4,0.2,0.1
		l-19,51.9c-0.2,0.5-0.2,0.5,0,0l22.2-44c0.3-0.5,0.4-0.4,0.2,0.1l-17.2,48.6c-0.3,0.5-0.3,0.5-0.1-0.1l16.9-35.6
		c0.3-0.5,0.4-0.4,0.3,0.1c0,0-3.5,16.6-2.5,14.5"/>
</g>
<g>
	<path class="st0" d="M138.2,43.1c-6.6,9-12.4,18.7-17.2,28.8c5.7-11.2,19.8-30.8,19.8-30.8c0.3-0.4,0.4-0.4,0.2,0.1
		c0,0-13.8,29.7-20.9,45.1c7.7-14.6,24.7-41.5,24.7-41.5c0.3-0.5,0.3-0.4,0.1,0.1c0,0-14.4,31.9-21.7,48.3
		c8.6-16.6,28.3-47.2,28.3-47.2c0.3-0.5,0.4-0.4,0.1,0.1c0,0-16.5,35.9-25,54.3c9.1-17.1,29.8-48.7,29.8-48.7
		c0.3-0.5,0.4-0.4,0.2,0.1c0,0-15.5,36.7-24.4,55c8-17.6,26.7-50.1,26.7-50.1c0.3-0.5,0.3-0.4,0.1,0.1c0,0-14.1,35.1-22,52.9
		c6.7-15.3,15.1-29.9,24.8-43.4c1.2-1.7,3.9-3.3,3.9-3.3c0.5-0.3,0.7-0.1,0.4,0.4c0,0-16.3,35.2-24.8,53.1
		c7.7-18.6,32.4-49.2,32.4-49.2c0.3-0.4,0.4-0.4,0.2,0.1c0,0-15,31.5-23.8,47.2c7.4-15.3,28.3-40.8,28.3-40.8
		c0.3-0.4,0.4-0.4,0.2,0.1c0,0-15.5,31.6-26.3,46c6.6-12.8,21.1-36.6,21.1-36.6c0.3-0.5,0.3-0.5,0,0c0,0-3.6,6.3-3.7,6.3
		c0,0,5.9-10.2,5.8-10.2c0,0-3.2,5.1-5.5,9.2c-3.6,6.6-8,16.4-10.8,29.8c7.4-9.7,15.4-18.9,24-27.5c-3.2,6.1-6.3,12.3-9.5,18.4
		c0,0,0.7-1.5,2.1-4.4"/>
</g>
<g>
	<line class="st0" x1="146.7" y1="43.7" x2="146.7" y2="24.7"/>
</g>
<g>
	<line class="st0" x1="149.7" y1="254.9" x2="149.7" y2="269.7"/>
</g>
<g>
	<path class="st0" d="M189.4,37.5c-0.5-1-2-0.5-2.8,0.3c-1.2,1-2.2,2.4-2.4,3.9c-0.2,1.6,0.8,3.3,2.3,3.6c2.4,0.4,3.9-2.5,4.2-4.9
		c0.7-4.6-1.1-12.8-1.1-12.8c-0.1-0.5-0.2-0.5-0.2,0c0,0,0.4,9.9,1.5,15.2c0.3,1.3,0.7,2.7,1.8,3.5"/>
</g>
<g>
	<path class="st0" d="M197.5,35.6c3.3,0.1,5.8,0.1,5.8,0.1c0.5,0,0.7,0.4,0.4,0.8l-5.8,7.6c-0.3,0.5-0.1,0.7,0.4,0.5
		c0,0,4.9-1.8,7.8-0.7"/>
</g>
<g>
	<path class="st0" d="M199,39.5c-1,0-2.1,0-2.1,0c-0.6,0-0.5,0,0,0c0,0,4.5,0,7.2-0.6"/>
</g>
<g>
	<path class="st0" d="M205.5,23.4c1.2-0.5,2.7-1,2.7-1c0.5-0.2,0.8,0.1,0.7,0.6l-2.4,5.9c-0.3,0.5-0.1,0.7,0.4,0.6
		c0,0,1.7-0.5,3-0.9"/>
</g>
</svg>
