<?xml version="1.0" encoding="utf-8"?>
<!-- Generator: Adobe Illustrator 19.1.0, SVG Export Plug-In . SVG Version: 6.00 Build 0)  -->
<svg version="1.1" id="Layer_1" xmlns="http://www.w3.org/2000/svg" xmlns:xlink="http://www.w3.org/1999/xlink" x="0px" y="0px"
	 viewBox="0 0 300 300" style="enable-background:new 0 0 300 300;" xml:space="preserve">
<style type="text/css">
<!-- 	.st0{fill:none;stroke:#ffffff;stroke-width:2;stroke-miterlimit:10;} -->
		.st0{fill:none;stroke:#ffffff;stroke-width:2;stroke-miterlimit:10;stroke-dasharray: 2500;stroke-dashoffset: 2500; animation: dash 2s linear forwards;}
	@keyframes dash {
  to {
    stroke-dashoffset: 0;
  }
}
</style>
<g>
	<path class="st0" d="M154,154.4c-0.3-8.8-0.6-17.7-0.9-26.5c-0.7-19.8-2.1-41.4-15.7-56.9c-5.6-6.4-12.9-11.1-20.6-14.7
		c-14.9-6.9-32.1-9.2-46.8-4.1S43.7,70.4,42.8,86c-0.9,15.8,8.5,31,18.7,44.1c4.7,6.1,9.9,12.1,16.6,15.9c6.1,3.4,13,4.7,19.7,6
		c19.3,3.5,39.4,7,57.6,1.9"/>
</g>
<g>
	<path class="st0" d="M71.6,60.3c13.9-4.1,42-2.3,42-2.3c0.5,0,0.5,0.1,0,0.1L69,62.4c-0.5,0.1-0.5,0.2,0,0.2l56,3.3
		c0.5,0.1,0.5,0.1,0,0.1l-55.1-0.1c-0.5,0-0.5,0.1,0,0.1l64.7,4.6c0.5,0.1,0.5,0.1,0,0l-72.6,0.3c-0.5,0-0.6,0.1,0,0.1l66.9,5.4
		c0.5,0,0.5,0,0,0l-70.7,1c-0.5,0.1-0.5,0.1,0,0.1l79.5,4.2c0.5,0,0.5,0.1,0,0.1l-77.6,1.4c-0.5,0-0.6,0.1,0,0.2l73,7.5
		c0.5,0,0.5,0,0,0l-72.8-2.2c-0.5,0-0.5,0,0,0l83.2,4.1c0.5,0,0.5,0,0,0l-84.7,1.6c-0.5,0.1-0.5,0.1,0,0.2l80.5,6.3c0.5,0,0.6,0,0,0
		l-74.4-3.4c-0.5,0-0.6,0.1,0,0.1l78.8,8.2c0.5,0.1,0.5,0.1,0,0l-84.7,0.8c-0.5,0-0.5,0.1,0,0.1l83.6,5.9c0.5,0,0.5,0.1,0,0l-82,4.6
		c-0.5,0.1-0.5,0.1,0,0.1l80.6,1.3c0.5,0,0.5,0,0,0l-72.3,2.8c-0.5,0.1-0.5,0.1,0,0.1l72.7,1.7c0.5,0,0.5,0,0,0l-69,4.7
		c-0.5,0.1-0.5,0.2,0,0.2l74.9,1.6c0.5,0,0.5,0.1,0,0l-66.6,6c-0.5,0.1-0.5,0.1,0,0l65.7-4c0.5,0,0.5,0,0,0l-60.7,8.8
		c-0.5,0.1-0.5,0.2,0,0.2l63.3-0.3c0.5,0,0.5,0,0,0l-53.1,3.6c-0.5,0.1-0.5,0.1,0,0.1l51.5-0.7c0.5,0,0.6,0,0,0l-32.1,2.6
		c-0.5,0.1-0.6,0.2,0,0.4l32.3,6c0.5,0.1,0.6,0,0-0.1c0,0-9.7-2.4-15.1-3.7"/>
</g>
<g>
	<path class="st0" d="M157.9,153.3c14.8-0.4,29.6,0.5,44.2,2.8c12,1.8,24.1,4.6,34.4,11s18.7,16.8,20.1,28.8
		c1.2,10.9-3.2,21.5-8.2,31.3c-4.8,9.6-10.7,19.4-20.2,24.3c-12.6,6.4-28.2,2.3-40.1-5.2c-15.3-9.7-27.1-24.8-32.7-42
		c-5.6-17.2-4.9-36.4,1.9-53.2"/>
</g>
<g>
	<path class="st0" d="M163.3,162.5c-1.4-1.6-3.6-3.9-3.6-3.9c-0.4-0.4-0.2-0.8,0.3-0.9l29.2-3.3c0.5-0.1,0.5-0.1,0,0l-28.6,4
		c-0.5,0.1-0.5,0.2,0,0.2l40.8,0.7c0.5,0,0.6,0,0,0l-43.3,3.9c-0.5,0.1-0.5,0.1,0,0.1l45.4-1.5c0.5,0,0.6,0,0,0l-38.4,4.6
		c-0.5,0.1-0.5,0.1,0,0.2l57.5,1c0.5,0,0.5,0,0,0l-60.2,2.6c-0.5,0.1-0.5,0.1,0,0.1l72.7,1.4c0.5,0,0.5,0,0,0l-70.2,3.8
		c-0.5,0.1-0.5,0.2,0,0.2l70.4,3.1c0.5,0,0.5,0,0,0l-70.4,1.5c-0.5,0-0.5,0.1,0,0.1l81.3,4.8c0.5,0,0.5,0.1,0,0l-72.8-1.8
		c-0.5,0-0.6,0.1,0,0.1l69,7.9c0.5,0.1,0.5,0.1,0,0l-81.2-4.4c-0.5,0-0.6,0,0,0.1l90.4,8c0.5,0,0.5,0,0,0l-82.9-0.8
		c-0.5,0-0.6,0.1,0,0.1l79,7.5c0.5,0.1,0.5,0,0,0l-85.9-1.9c-0.5,0-0.6,0.1,0,0.1l72.9,7.1c0.5,0.1,0.5,0,0,0l-65.8-4.6
		c-0.5,0-0.6,0,0,0.1l74.1,7.5c0.5,0.1,0.5,0.1,0,0l-75.7-1c-0.5,0-0.6,0.1,0,0.1l74.6,7.9c0.5,0.1,0.5,0.1,0,0l-71.5-2.3
		c-0.5,0-0.6,0.1,0,0.1l72.9,6.8c0.5,0.1,0.5,0,0,0l-67.9-2c-0.5,0-0.6,0.1,0,0.1l60,7c0.5,0.1,0.5,0.1,0,0.1l-60,0.3
		c-0.5,0-0.5,0.1,0,0.1l60.4,3.9c0.5,0,0.5,0.1,0,0l-64.9,1.9c-0.5,0-0.5,0.1,0,0.2l56.5,5.8c0.5,0.1,0.5,0.1,0,0.1l-40.6,0.9
		c-0.5,0-0.6,0.1,0,0.1l39.1,3.5c0.5,0,0.6,0.2,0,0.3l-22.1,2.4c-0.5,0-0.6,0,0-0.1l17.1-0.6c0.5,0,0.6,0.2,0.1,0.4l-12.4,3.9
		c-0.5,0.1-0.5,0.3,0,0.3l7.9,0.3c0.5,0,0.6,0,0,0c0,0-1.4-0.1-2.7-0.2"/>
</g>
<g>
	<path class="st0" d="M152.2,156.9c-23.9-3.1-48.1-3.7-68.5,3.6c-20.4,7.3-36.5,23.6-38.1,45.5c-0.4,5.2,0.1,10.7,2,16.1
		c4.7,13.4,19.2,25.1,33.3,27c9.6,1.3,18.2-1.6,25.9-5.2c16.9-7.9,31.4-19.8,39.6-36c8.2-16.2,9.6-36.9,1.5-56.7"/>
</g>
<g>
	<path class="st0" d="M153.6,149.5c-2-24-1.4-48.3,6.8-68.3c8.3-20,25.2-35.4,47.2-35.9c5.2-0.1,10.7,0.6,16,2.7
		c13.2,5.4,24.2,20.3,25.4,34.5c0.8,9.6-2.5,18.1-6.5,25.7c-8.7,16.5-21.3,30.5-37.8,37.9s-37.3,7.9-56.7-1.1"/>
</g>
<g>
	<path class="st0" d="M149.8,150.1c0.1-12,0.2-23.9,0.3-35.9c0.1-6.5,0.1-13.1-1.5-19.4c-1.8-6.9-5.5-13.2-9.5-19.1
		c-8.4-12.4-19.3-24.3-33.7-28.3c-20.2-5.5-42.2,6.9-52.9,24.8c-8.3,13.9-11,32.1-3.2,46.3c7.9,14.5,24.4,21.8,40.1,27
		c18.6,6.1,37.9,10.6,57.5,11.5"/>
</g>
<g>
	<path class="st0" d="M151.3,159.2c-28.1-8.3-59.5-4.5-84.8,10.1c-7.6,4.4-15,10.2-18,18.4c-1.3,3.7-1.6,7.6-1.4,11.5
		c0.8,19.8,15.1,38.3,34,44.1s41.1-1.5,52.9-17.4c6.3-8.5,9.6-18.8,12.8-28.9c3.9-12.2,11.3-35.6,11.3-35.6c0.2-0.5,0.1-0.5-0.1,0
		c0,0-3.9,8.9-4.2,14.2"/>
</g>
<g>
	<path class="st0" d="M159.6,148.2c12.1,0,24.4,0.2,36.1,3.8c14.9,4.6,27.8,14.4,40.2,23.9c7.2,5.5,14.8,11.6,17.8,20
		c3.6,10.1-0.1,20.9-4.4,30.3c-4,8.7-9.2,17.8-18.3,21.2c-5.5,2-11.7,1.7-17.5,0.4c-18.2-4.1-33.9-17.2-43.5-33.2
		c-9.7-16-13.8-34.6-14.5-52.9"/>
</g>
<g>
	<path class="st0" d="M154.2,148.4c-4.1-9.4-6.1-19.7-6-30.2c0.2-17,6.5-34.2,17.8-47.4s27.8-22,44.5-23c6.9-0.4,14,0.5,19.7,4
		c6.9,4.3,11.2,12.1,12.7,20.4s0.6,16.9-1,25.3c-1.3,6.8-3,13.6-6.4,19.7c-6.5,11.6-18.4,19.1-30.5,24.3
		c-17.5,7.7-36.3,11.7-54.9,11.8"/>
</g>
<g>
	<line class="st0" x1="104.6" y1="153.2" x2="21.6" y2="153.2"/>
</g>
<g>
	<line class="st0" x1="194.8" y1="155.1" x2="276.1" y2="155.1"/>
</g>
<g>
	<line class="st0" x1="152.2" y1="276.6" x2="152.2" y2="26.4"/>
</g>
<path class="st0" d="M168.4,32.2c-1.7-2-5.1-2.6-7.1-0.8c-1.9,1.8-0.9,5.9,1.8,6c1.6,0.1,3-1.1,3.7-2.5c0.7-1.4,0.8-3,0.9-4.6
	c0.3-4.8,0.6-9.7,0.9-14.5c-0.9,5.8-0.9,11.7-0.1,17.5c0.2,1.1,0.4,2.2,1.2,3c0.8,0.7,2.3,0.8,2.8-0.2"/>
<path class="st0" d="M173.6,28c3,0.1,5.9,0.1,8.9,0.2c-2.3,2.3-4.2,5-5.6,7.9c3-0.2,5.9-0.3,8.9-0.5c0.9,0,2.1-0.7,1.6-1.4"/>
<path class="st0" d="M190.5,25.3c-0.3,1.6-0.4,3.2-0.3,4.8c0,0.9,0.1,1.8,0.6,2.5c0.5,0.7,1.5,1.2,2.3,0.8c0.5-0.3,0.8-0.8,1.1-1.4
	c0.9-1.9,1.5-4,1.7-6.1c0.1,4.5,0,8.9-0.1,13.4c0,0.9-0.1,1.9-0.6,2.7c-1.1,1.9-3.8,1.7-5.9,1.4c-0.2-0.7,0-1.5,0.5-2"/>
</svg>
