<?xml version="1.0" encoding="utf-8"?>
<!-- Generator: Adobe Illustrator 19.1.0, SVG Export Plug-In . SVG Version: 6.00 Build 0)  -->
<svg version="1.1" id="Layer_1" xmlns="http://www.w3.org/2000/svg" xmlns:xlink="http://www.w3.org/1999/xlink" x="0px" y="0px"
	 viewBox="0 0 150 150" style="enable-background:new 0 0 150 150;" xml:space="preserve">
<style type="text/css">
	.st0{opacity:0.5;fill:#FFFFFF;}
</style>
<circle class="st0" cx="75" cy="75" r="75"/>
<g>
	<path d="M0.9,141.7c0,0,0.6-0.1,1.6-0.4c1-0.2,2.6-0.5,4.6-0.8c2-0.3,4.4-0.7,7.1-1c2.7-0.3,5.8-0.7,9.2-1c1.7-0.1,3.4-0.3,5.3-0.5
		c1.8-0.2,3.7-0.2,5.6-0.4c3.9-0.2,7.9-0.5,12.1-0.6c2.1-0.1,4.2-0.1,6.4-0.2c2.2-0.1,4.4-0.1,6.6-0.1c4.4-0.1,8.9,0,13.4,0
		c4.5,0.1,9,0.1,13.4,0.3c2.2,0.1,4.4,0.2,6.6,0.3c2.2,0.1,4.3,0.2,6.4,0.3c4.2,0.2,8.3,0.6,12.1,0.9c1.9,0.2,3.8,0.3,5.6,0.5
		c1.8,0.2,3.6,0.4,5.2,0.6c3.4,0.3,6.4,0.8,9.2,1.1c2.7,0.3,5.1,0.8,7.1,1.1c2,0.3,3.5,0.6,4.5,0.8c1,0.2,1.6,0.3,1.6,0.3l0,0.6
		c0,0-35.9-0.4-71.7-0.8c-17.9-0.2-35.9-0.5-49.3-0.5c-6.7,0-12.3-0.1-16.2-0.1c-2,0-3.5,0-4.5,0.1c-1.1,0-1.6,0.1-1.6,0.1
		L0.9,141.7z"/>
</g>
<g>
	<path d="M24.6,46.1c0,0,0.5-0.4,1.5-1.2c0.5-0.4,1.2-0.8,1.8-1.5c0.6-0.6,1.4-1.3,2.2-2.1c0.8-0.9,1.6-1.8,2.6-2.9
		c0.9-1.1,1.9-2.2,2.8-3.5c0.9-1.3,2-2.7,2.9-4.2c0.5-0.8,1.1-1.4,1.7-2.1c0.6-0.7,1.2-1.5,1.8-2.2c2.4-3.1,4.9-6.6,7.4-10.5
		c1.2-1.9,2.5-3.9,3.6-6c0.3-0.5,0.6-1,0.9-1.6l0.2-0.4l0.2-0.3c0.1-0.1,0.2-0.2,0.3-0.4C54.8,7,54.9,6.9,55,6.7
		c0.1-0.1,0.4-0.3,0.6-0.4C56,6.1,56.4,5.9,57.3,6C58,6,59,6.5,59.3,6.9c0.4,0.5,0.5,0.7,0.6,1C60,8.1,60,8.2,60.1,8.4
		c0,0.1,0,0.2,0.1,0.3l0,0.2c0,0.3,0,0.5,0,0.6l0,0.5c-0.1,1.2-0.1,2.5-0.2,3.7c-0.4,10.1-0.8,20.9-1,31.7
		c-0.1,5.4-0.2,10.8-0.2,16.1c0,5.3,0,10.5,0.1,15.6c0.1,2.5,0.1,5,0.2,7.4c0.1,2.4,0.2,4.8,0.3,7.1c0.1,2.3,0.3,4.5,0.5,6.7
		c0.2,2.1,0.4,4.2,0.6,6.2c0.1,1,0.2,2,0.4,3c0.2,1,0.3,1.9,0.2,2.9c0,1.9-0.1,3.7-0.2,5.4c-0.1,3.4-0.4,6.3-0.8,8.7
		c-0.3,2.4-0.8,4.3-1,5.5c-0.3,1.2-0.5,1.9-0.5,1.9s0-0.7-0.1-2c-0.1-1.3-0.3-3.1-0.6-5.5c-0.3-2.3-0.8-5.1-1.5-8.3
		c-0.3-1.6-0.7-3.3-1.1-5.1c-0.2-0.9-0.3-1.8-0.4-2.8c-0.1-1-0.2-1.9-0.3-3c-0.2-2-0.4-4.1-0.6-6.4c-0.2-2.2-0.3-4.5-0.5-6.8
		c-0.2-2.3-0.2-4.7-0.3-7.2c-0.1-2.5-0.2-5-0.2-7.5c-0.1-5.1-0.2-10.4-0.1-15.7c0-5.3,0.1-10.8,0.2-16.2c0.2-10.8,0.6-21.7,1-31.8
		c0.1-1.3,0.1-2.5,0.2-3.8l0-0.5c0-0.1,0,0,0,0.1l0,0.1c0,0.1,0,0.1,0,0.2c0,0.2,0.1,0.2,0.1,0.4c0.1,0.2,0.2,0.4,0.6,0.9
		c0.2,0.3,1.2,0.9,1.8,0.9c0.8,0,1.2-0.2,1.6-0.3c0.2-0.1,0.5-0.3,0.5-0.4c0.1-0.1,0.2-0.2,0.2-0.2c0.1-0.1,0.1-0.2,0.2-0.2
		c0,0,0.1-0.2,0.1-0.1l-0.2,0.4c-0.3,0.6-0.6,1.1-0.9,1.6C57,14.9,55.8,17,54.5,19c-2.6,4-5.1,7.6-7.7,10.9
		c-0.7,0.8-1.3,1.6-1.9,2.4c-0.6,0.8-1.2,1.6-1.9,2.2c-1.4,1.3-2.8,2.5-4.1,3.5c-1.3,1.1-2.6,2-3.8,2.9c-1.3,0.8-2.4,1.5-3.4,2.1
		c-2.2,1.2-3.9,2-5.1,2.4C25.2,45.9,24.6,46.1,24.6,46.1z"/>
</g>
<g>
	<path d="M123.1,91.9c0,0-0.6,0.3-1.8,0.9c-0.6,0.3-1.3,0.6-2.1,1.1c-0.8,0.5-1.7,1.1-2.7,1.7c-1,0.7-2,1.5-3.2,2.4
		c-1.1,0.9-2.3,1.9-3.5,3c-2.4,2.3-5.1,4.9-7.8,8c-2.7,3.1-5.5,6.5-8.2,10.3c-1.4,1.9-2.7,3.9-4.1,5.9c-0.7,1-1.4,2.1-2,3.1
		l-0.2,0.4l-0.1,0.1c-0.1,0.1-0.1,0.2-0.2,0.3c-0.1,0.1-0.2,0.2-0.3,0.3c-0.1,0.1-0.1,0.1-0.3,0.2c-0.1,0.1-0.4,0.2-0.7,0.2
		c-0.3,0-0.8-0.1-1.1-0.3c-0.3-0.2-0.5-0.5-0.6-0.6c-0.1-0.2-0.2-0.3-0.2-0.4c0-0.1-0.1-0.2-0.1-0.3c0-0.3,0-0.5,0-0.6l0-0.5
		c0-0.6,0.1-1.3,0.1-1.9c0.5-10.3,1-21.2,1.2-32.2c0.1-5.5,0.2-11,0.2-16.4c0-5.4-0.1-10.7-0.1-15.8c0-5.1,0-10.1-0.1-14.7
		c-0.1-2.3,0-4.6-0.2-6.8c-0.1-2.2-0.1-4.3-0.3-6.4c-0.2-4.1-0.4-7.9-0.4-11.3c0-3.4,0.2-6.4,0.4-8.8c0.3-2.4,0.6-4.3,0.9-5.6
		c0.3-1.3,0.5-1.9,0.5-1.9L87,5.4c0,0,0,0.7,0,2c0,1.3,0,3.2,0.2,5.5c0.2,2.4,0.5,5.2,0.9,8.5c0.4,3.3,1.1,7,1.7,11.1
		c0.3,2,0.6,4.2,0.8,6.4c0.3,2.2,0.4,4.6,0.6,6.9c0.4,4.8,0.5,9.8,0.5,15c0,5.2-0.2,10.5-0.5,16c-0.3,5.4-0.6,10.9-1,16.4
		c-0.7,11-1.6,22-2.5,32.3c-0.1,0.6-0.1,1.3-0.2,1.9l0,0.4c0,0,0,0,0-0.1l0-0.2c0,0-0.1-0.2-0.1-0.3c-0.1-0.1-0.2-0.3-0.5-0.5
		c-0.3-0.2-0.7-0.3-1-0.2c-0.3,0-0.5,0.1-0.6,0.2c-0.1,0.1-0.2,0.1-0.2,0.1c-0.1,0.1-0.1,0.1-0.1,0.1c0,0,0,0.1,0,0.1
		c0,0,0.1-0.1,0-0.1l0.3-0.4c0.7-1.1,1.5-2.1,2.2-3.1c1.5-2,3-4,4.4-5.8c3-3.7,6-7.1,8.9-10.1c2.9-3,5.7-5.5,8.3-7.7
		c1.3-1,2.6-2,3.8-2.9c1.2-0.8,2.3-1.6,3.4-2.2c1.1-0.6,2-1.1,2.8-1.6c0.8-0.5,1.6-0.7,2.2-1c1.2-0.5,1.8-0.8,1.8-0.8L123.1,91.9z"
		/>
</g>
</svg>
