<?xml version="1.0" encoding="utf-8"?>
<!-- Generator: Adobe Illustrator 19.1.0, SVG Export Plug-In . SVG Version: 6.00 Build 0)  -->
<svg version="1.1" id="Layer_1" xmlns="http://www.w3.org/2000/svg" xmlns:xlink="http://www.w3.org/1999/xlink" x="0px" y="0px"
	 viewBox="0 0 150 150" style="enable-background:new 0 0 150 150;" xml:space="preserve">
<style type="text/css">
	.st0{opacity:0.5;fill:#FFFFFF;}
</style>
<circle class="st0" cx="75" cy="75" r="75"/>
<g>
	<path d="M1.6,142.4c0,0,0.6-0.1,1.6-0.4c1-0.2,2.6-0.6,4.5-0.9c2-0.3,4.3-0.7,7.1-1c2.7-0.4,5.8-0.7,9.2-1.1
		c1.7-0.2,3.4-0.3,5.2-0.5c1.8-0.2,3.7-0.3,5.6-0.4c3.9-0.3,7.9-0.6,12.1-0.7c2.1-0.1,4.2-0.2,6.4-0.3c2.2-0.1,4.4-0.1,6.6-0.2
		c4.4-0.1,8.9-0.1,13.4-0.1c4.5,0,9,0.1,13.4,0.2c2.2,0,4.4,0.1,6.6,0.2c2.2,0.1,4.3,0.2,6.4,0.3c4.2,0.2,8.3,0.5,12.1,0.8
		c1.9,0.1,3.8,0.2,5.6,0.4c1.8,0.2,3.6,0.3,5.2,0.5c3.4,0.3,6.4,0.7,9.2,1c2.7,0.3,5.1,0.7,7.1,1c2,0.3,3.5,0.6,4.5,0.8
		c1,0.2,1.6,0.3,1.6,0.3l0,0.6c0,0-35.9,0-71.8-0.1c-17.9-0.1-35.9-0.1-49.3-0.1c-6.7,0-12.3,0-16.2,0.1c-2,0-3.5,0-4.5,0.1
		c-1.1,0-1.6,0.1-1.6,0.1L1.6,142.4z"/>
</g>
<g>
	<path d="M24.3,91.4c0,0,0.7,0.2,1.9,0.6c1.2,0.3,3,1,5.2,2.1c1.1,0.6,2.3,1.3,3.5,2c1.2,0.8,2.6,1.7,4,2.7c1.4,1,2.8,2.1,4.3,3.3
		c0.7,0.6,1.4,1.3,2,2.1c0.6,0.8,1.3,1.5,2,2.3c2.7,3.2,5.5,6.7,8.2,10.6c1.4,1.9,2.7,3.9,4.1,6c0.3,0.5,0.7,1.1,1,1.6l0.2,0.4l0,0
		l0-0.1c0-0.1-0.1-0.1-0.2-0.2c-0.1-0.1-0.1-0.1-0.2-0.2c-0.1-0.1-0.2-0.2-0.4-0.3c-0.2-0.1-0.4-0.3-1-0.4c-0.4-0.1-1.4-0.1-2,0.3
		c-0.7,0.4-0.9,0.8-1.1,1.1c-0.1,0.2-0.2,0.5-0.2,0.6c0,0.2-0.1,0.3-0.1,0.3l0,0.2c0,0.2,0,0.2,0,0.2l0-0.5
		c-0.1-1.2-0.2-2.5-0.4-3.8c-0.9-10.1-1.8-20.9-2.5-31.8c-0.4-5.4-0.7-10.8-0.9-16.2c-0.3-5.3-0.5-10.6-0.6-15.7
		c-0.1-2.5-0.1-5.1-0.1-7.5c0-2.5,0-4.9,0-7.2c0-2.3,0.1-4.6,0.2-6.9c0.1-2.2,0.2-4.4,0.3-6.4c0.1-1,0.1-2,0.2-3
		c0-1,0.1-1.9,0.2-2.8c0.3-1.8,0.6-3.5,0.9-5.1c0.5-3.2,0.9-6.1,1.1-8.4c0.2-2.3,0.3-4.2,0.3-5.5c0-1.3,0-2,0-2s0.2,0.7,0.6,1.9
		c0.3,1.2,0.9,3.1,1.3,5.5c0.5,2.4,0.9,5.3,1.2,8.7c0.2,1.7,0.3,3.5,0.4,5.3c0.1,0.9,0,1.9-0.1,2.9c-0.1,1-0.1,2-0.2,3
		c-0.1,2-0.2,4.1-0.3,6.3c-0.1,2.1-0.1,4.4-0.2,6.7c-0.1,2.3,0,4.7,0,7.1c0,2.4,0.1,4.9,0.1,7.4c0.1,5,0.3,10.3,0.6,15.6
		c0.3,5.3,0.6,10.7,0.9,16.1c0.7,10.8,1.6,21.5,2.5,31.6c0.1,1.3,0.2,2.5,0.4,3.7l0,0.5c0,0.2,0,0.4,0,0.7c0,0.1,0,0.2,0,0.3
		c0,0.1,0,0.2-0.1,0.4c0,0.1-0.1,0.4-0.3,0.7c-0.2,0.3-0.4,0.8-1.2,1.2c-0.6,0.4-1.7,0.5-2.1,0.3c-0.6-0.1-0.8-0.3-1.1-0.4
		c-0.2-0.1-0.3-0.2-0.5-0.4c-0.1-0.1-0.2-0.2-0.2-0.2c-0.1-0.1-0.2-0.2-0.3-0.4l-0.1-0.2l-0.3-0.4c-0.3-0.5-0.6-1-1-1.5
		c-1.3-2-2.6-4-3.9-5.8c-2.6-3.7-5.3-7.1-7.9-10.1c-0.7-0.7-1.3-1.5-1.9-2.2c-0.7-0.7-1.3-1.3-1.8-2c-1-1.5-2.1-2.8-3.1-4.1
		c-1-1.3-2.1-2.3-3-3.4c-1-1-1.9-1.9-2.7-2.7c-0.9-0.8-1.6-1.4-2.3-2c-0.7-0.6-1.4-1-1.9-1.4C24.8,91.8,24.3,91.4,24.3,91.4z">
			<animateTransform
  attributeName="transform"
  type="translate"
  from="0 0"
  to="0 15"
  dur="1.2s"
  repeatCount = "5" />
		</path>
</g>
<g>
	<path d="M123.3,91.5c0,0-0.6,0.3-1.8,0.9c-0.6,0.3-1.3,0.6-2.1,1.1c-0.8,0.5-1.7,1.1-2.6,1.7c-1,0.7-2,1.5-3.1,2.4
		c-1.1,0.9-2.3,2-3.5,3c-2.4,2.3-5,4.9-7.7,8.1c-2.7,3.1-5.4,6.6-8.1,10.4c-1.3,1.9-2.7,3.9-4,6c-0.7,1-1.3,2.1-2,3.1l-0.2,0.4
		l-0.1,0.1c-0.1,0.1-0.1,0.2-0.2,0.3c-0.1,0.1-0.2,0.2-0.3,0.3c-0.1,0.1-0.1,0.1-0.3,0.2c-0.1,0.1-0.4,0.2-0.7,0.2
		c-0.3,0-0.8,0-1.1-0.3c-0.3-0.2-0.5-0.5-0.6-0.6c-0.1-0.2-0.2-0.3-0.2-0.4c0-0.1-0.1-0.2-0.1-0.3c-0.1-0.3,0-0.5,0-0.6l0-0.5
		c0-0.6,0.1-1.3,0.1-1.9c0.4-10.3,0.7-21.3,0.9-32.2c0-5.5,0.1-11,0-16.4c-0.1-5.4-0.2-10.7-0.3-15.8c-0.1-5.1-0.1-10-0.2-14.7
		c-0.1-2.3-0.1-4.6-0.2-6.8c-0.1-2.2-0.2-4.3-0.3-6.4c-0.3-4.1-0.5-7.9-0.5-11.3c0-3.4,0.1-6.4,0.4-8.8c0.2-2.4,0.6-4.3,0.9-5.6
		c0.3-1.3,0.5-1.9,0.5-1.9l0.6,0.1c0,0,0,0.7,0,2c0,1.3,0.1,3.2,0.2,5.5c0.2,2.4,0.5,5.2,1,8.5c0.5,3.3,1.1,7,1.8,11.1
		c0.3,2,0.6,4.2,0.9,6.4c0.3,2.2,0.4,4.6,0.7,6.9c0.4,4.8,0.6,9.8,0.7,15c0,5.2-0.1,10.5-0.4,16c-0.3,5.4-0.5,10.9-0.8,16.4
		c-0.6,11-1.4,22-2.2,32.3c-0.1,0.6-0.1,1.3-0.2,1.9l0,0.4c0,0,0,0,0-0.1l0-0.2c0,0-0.1-0.2-0.1-0.3c-0.1-0.1-0.2-0.3-0.5-0.5
		c-0.3-0.2-0.7-0.3-1-0.2c-0.3,0-0.5,0.1-0.6,0.2c-0.1,0.1-0.2,0.1-0.2,0.2c-0.1,0.1-0.1,0.1-0.1,0.1c0,0,0,0.1,0,0.1
		c0,0,0.1-0.1,0-0.1l0.3-0.4c0.7-1.1,1.4-2.1,2.2-3.1c1.4-2.1,2.9-4,4.4-5.9c2.9-3.7,5.9-7.1,8.8-10.2c2.8-3,5.7-5.6,8.2-7.8
		c1.3-1,2.5-2.1,3.7-2.9c1.2-0.8,2.3-1.6,3.3-2.2c1.1-0.6,2-1.1,2.8-1.6c0.8-0.5,1.6-0.7,2.2-1c1.2-0.5,1.8-0.8,1.8-0.8L123.3,91.5z
		">
			<animateTransform
  attributeName="transform"
  type="translate"
  from="0 0"
  to="0 15"
  dur="1.2s"
  repeatCount = "5" />
		</path>
</g>
</svg>
