<?xml version="1.0" encoding="utf-8"?>
<!-- Generator: Adobe Illustrator 19.1.0, SVG Export Plug-In . SVG Version: 6.00 Build 0)  -->
<svg version="1.1" id="Layer_1" xmlns="http://www.w3.org/2000/svg" xmlns:xlink="http://www.w3.org/1999/xlink" x="0px" y="0px"
	 viewBox="0 0 35 35" style="enable-background:new 0 0 35 35;" xml:space="preserve">
<style type="text/css">
	.st0{opacity:0.5;fill:#FFFFFF;}
</style>
<path class="st0" d="M35,17.8c-0.1,9.4-7.9,16.9-17.5,16.8C7.9,34.5,0.2,26.9,0.3,17.5S8.3,0.6,17.8,0.7S35.1,8.5,35,17.8z"/>
<g>
	<path d="M0.5,32.7c0,0,0.1,0,0.4-0.1c0.2-0.1,0.6-0.2,1.1-0.3c0.9-0.2,2.2-0.4,3.8-0.6c0.8-0.1,1.6-0.2,2.5-0.3
		c0.9-0.1,1.8-0.2,2.8-0.2c1,0,2-0.1,3-0.1c1,0,2.1,0,3.1,0c1,0,2.1,0.1,3.1,0.1c1,0,2,0.1,3,0.2c1,0.1,1.9,0.2,2.8,0.3
		c0.9,0.1,1.7,0.2,2.5,0.3c3.1,0.4,5.2,1.1,5.2,1.1l0,0.2c0,0-8.3-0.1-16.6-0.1C13,33,8.8,32.9,5.7,32.9c-1.6,0-2.8,0-3.8,0
		c-0.9,0-1.4,0-1.4,0L0.5,32.7z"/>
</g>
<g>
	<path d="M5.9,20.5c0,0,0.1,0,0.4,0.1c0.3,0.1,0.7,0.2,1.2,0.5c0.5,0.3,1.1,0.6,1.7,1.1c0.6,0.5,1.2,1.1,1.9,1.7
		c0.6,0.7,1.3,1.5,1.8,2.4c0.3,0.5,0.5,0.9,0.8,1.5c0.1,0.1,0.1,0.3,0.1,0.3c0,0,0.1,0-0.3-0.1c-0.2-0.1-0.5,0.1-0.6,0.2
		c-0.1,0.1-0.1,0.1-0.1,0.1c0,0,0.1-0.4,0.1-0.7c0.2-2.3,0.1-4.7-0.2-7.1c-0.2-1.2-0.3-2.4-0.4-3.6c-0.1-1.2-0.1-2.4-0.1-3.5
		c0-0.6,0-1.1,0-1.7c0-0.6,0.1-1.1,0.1-1.6c0.1-1,0.3-2.1,0.4-2.9c0.4-1.8,0.7-3.2,0.8-4.3c0.1-0.5,0.1-0.9,0.2-1.2
		c0-0.3,0-0.4,0-0.4l0.2,0c0,0,0.2,0.6,0.4,1.7c0.2,1.1,0.2,2.7,0.1,4.5c0,0.9-0.1,1.8-0.1,2.9c0,1-0.1,2.1-0.2,3.2
		c-0.1,1.1-0.1,2.3-0.2,3.5c-0.1,1.2-0.2,2.4-0.3,3.6c-0.3,2.4-0.2,4.8,0.2,7.1l0.1,0.4c0,0.1,0.1,0.3,0,0.6c0,0.1,0,0.2-0.1,0.3
		c-0.1,0.2-0.5,0.4-0.7,0.3c-0.5-0.1-0.5-0.3-0.6-0.3c-0.2-0.2-0.2-0.3-0.3-0.4c-0.3-0.4-0.6-0.8-0.9-1.2c-0.6-0.8-1.1-1.6-1.7-2.3
		c-0.5-0.7-1-1.3-1.5-1.9c-0.2-0.3-0.5-0.5-0.7-0.7c-0.2-0.2-0.4-0.4-0.6-0.6c-0.4-0.3-0.7-0.6-0.9-0.8c-0.2-0.2-0.3-0.3-0.3-0.3
		L5.9,20.5z"/>
</g>
<g>
	<path d="M28.8,21.5c0,0-0.1,0.1-0.4,0.2c-0.3,0.1-0.6,0.3-1.1,0.6c-0.9,0.6-2,1.6-3.2,2.9c-0.6,0.7-1.2,1.4-1.8,2.3
		c-0.3,0.4-0.6,0.9-0.9,1.3l-0.2,0.3L21,29.4c-0.1,0.1-0.1,0.2-0.2,0.3c-0.1,0.1-0.1,0.1-0.3,0.2c-0.1,0.1-0.5,0-0.6-0.1
		c-0.3-0.3-0.2-0.4-0.2-0.6c0-0.2,0-0.4,0-0.5c0.1-2.3,0.2-4.7,0.2-7.2c0-2.4,0-4.9-0.1-7.1c0-1.1,0-2.2,0-3.3c0-1,0-2-0.1-2.9
		c-0.1-1.8,0-3.4,0.2-4.5c0.2-1.1,0.4-1.7,0.4-1.7l0.2,0c0,0,0,0.6,0.1,1.7c0.1,0.5,0.2,1.2,0.3,1.9C21,6.2,21.1,7,21.3,7.9
		c0.2,0.9,0.3,1.9,0.4,3c0.1,1.1,0.1,2.2,0.2,3.3c0,2.3-0.2,4.8-0.4,7.2c-0.2,2.5-0.4,4.9-0.6,7.2c0,0.2,0,0.3,0,0.3
		c0,0,0.1,0-0.1-0.2c-0.1-0.1-0.4-0.1-0.4-0.1c-0.1,0-0.1,0-0.1,0.1c0,0,0,0,0,0l0.1-0.2l0.3-0.3c0.3-0.5,0.7-0.9,1-1.3
		c0.7-0.8,1.4-1.5,2.1-2.2c1.3-1.3,2.6-2.2,3.6-2.7c0.5-0.3,0.9-0.4,1.1-0.5c0.3-0.1,0.4-0.2,0.4-0.2L28.8,21.5z"/>
</g>
</svg>
