<?xml version="1.0" encoding="utf-8"?>
<!-- Generator: Adobe Illustrator 19.1.0, SVG Export Plug-In . SVG Version: 6.00 Build 0)  -->
<svg version="1.1" id="Layer_1" xmlns="http://www.w3.org/2000/svg" xmlns:xlink="http://www.w3.org/1999/xlink" x="0px" y="0px"
	 viewBox="0 0 400 400" style="enable-background:new 0 0 400 400;" xml:space="preserve">
<style type="text/css">
	.st0{fill:none;stroke:#000000;stroke-width:2;stroke-miterlimit:10;}
</style>
<g>
	<path class="st0" d="M133.2,168.3c-1.4-3.3-5-4.9-7.8-3.5c-2.2,1.1-3.7,3.7-4.8,6.4c-1.7,4.3-2.6,9.2-2.6,14.1
		c0,2.4,0.3,5.1,1.8,6.7c0.9,1,2.1,1.5,3.3,1.8c4.2,1.1,8.6,0.6,12.6-1.5"/>
</g>
<g>
	<path class="st0" d="M146.5,180.5c38-2.7,76.2-3.8,114.3-3.3"/>
</g>
<g>
	<path class="st0" d="M282,168.8c0.1-3.6-3.9-5.6-6.6-4.1c-2.6,1.5-4.1,5.1-5.2,8.5c-1.7,5.4-2.8,12.1,0.4,16.4
		c1.3,1.7,3,2.7,4.8,3.4c4.9,1.8,10.3,1.6,15.1-0.7"/>
</g>
<g>
	<path d="M293.7,205.2c6,19.4,12.3,38.7,18.9,57.8c0.4,1.2,0.9,2.5,1.9,2.9c0.9,0.4,1.8-0.1,2.7-0.5c4.2-2.2,8.3-4.4,12.5-6.6
		c0.6-0.3,1.3-0.8,1.4-1.6c0-0.5-0.2-1-0.5-1.5c-11.1-18.1-23.6-34.8-37.2-49.9"/>
	<path class="st0" d="M293.7,205.2c6,19.4,12.3,38.7,18.9,57.8c0.4,1.2,0.9,2.5,1.9,2.9c0.9,0.4,1.8-0.1,2.7-0.5
		c4.2-2.2,8.3-4.4,12.5-6.6c0.6-0.3,1.3-0.8,1.4-1.6c0-0.5-0.2-1-0.5-1.5c-11.1-18.1-23.6-34.8-37.2-49.9"/>
</g>
<g>
	<path d="M108.3,167.6c-16.9-7-47.1-29.5-47.1-29.5c-0.4-0.3-0.6-1-0.5-1.5l7.8-18c0.2-0.5,0.7-0.5,1.1-0.1c0,0,25,30.5,39.4,43.9
		c1,0.9,1.3,2.6,1.3,2.6c0.1,0.5-0.2,1.1-0.8,1.3c0,0-2.2,0.7-3.5-0.7"/>
	<path class="st0" d="M108.3,167.6c-16.9-7-47.1-29.5-47.1-29.5c-0.4-0.3-0.6-1-0.5-1.5l7.8-18c0.2-0.5,0.7-0.5,1.1-0.1
		c0,0,25,30.5,39.4,43.9c1,0.9,1.3,2.6,1.3,2.6c0.1,0.5-0.2,1.1-0.8,1.3c0,0-2.2,0.7-3.5-0.7"/>
</g>
<line class="st0" x1="-24.2" y1="-19.9" x2="-24.2" y2="-19.9"/>
<g>
	<path class="st0" d="M114.6,148.5c2.2-4.6,7.1-7,12.2-6"/>
</g>
<g>
	<path class="st0" d="M103.9,140.1c4.7-6.9,13.1-10.2,21.7-8.3"/>
</g>
<g>
	<path class="st0" d="M95.3,128.1c4.7-6.9,13.9-9.5,22.3-6.2"/>
</g>
<g>
	<path class="st0" d="M81.4,116.4c3.5-9.2,13.8-13.5,23.2-9.7"/>
</g>
<g>
	<path class="st0" d="M305.2,169.5c0.5-0.3-0.6-0.8-0.6-0.1c0,0.7,0.6,1,1.1,1.2c2.3,1.1,3.5,4.4,3.7,7.4s-0.5,6.1-0.9,9.1
		c-0.1,0.7-0.1,1.5,0.4,1.8c0.5,0.2,0.5-1.3,0.1-0.8"/>
</g>
<g>
	<path class="st0" d="M313.4,166.3c2.9,7.4,4,15.8,3.3,24"/>
</g>
<g>
	<path class="st0" d="M324.5,166.1c1.7,9.5,1.2,28.1,1.2,28.1c0,0.5-0.1,0.6-0.3,0c0,0-0.3-1.1-0.5-2.1"/>
</g>
<g>
	<path class="st0" d="M333.1,167c4.4,8.8,6.2,19.6,4.8,29.8"/>
</g>
<g>
	<path class="st0" d="M111.8,195.9c-9.1,4.1-17.7,9-25.9,14.7c-14.6,10.1-28.4,24.3-29.9,42.1c-0.3,3.8,0.1,8,2.6,10.9
		c1.3,1.5,3.1,2.5,4.9,3.3c6.8,2.9,14.8,2.7,21.5-0.5c8.5-4.1,14.2-12.6,17.9-21.4c3.6-8.8,5.5-18.3,8.7-27.3
		c2.3-6.6,5.4-13,6.5-19.9c0.1-0.7,0.2-1.4-0.2-2c-0.4-0.7-1.3-0.9-2.1-1c-3.5-0.3-7.2,0.7-10,2.9"/>
</g>
<g>
	<path class="st0" d="M140,168.8c-0.2-7.2,2.1-14.5,6.5-20.2c1-1.3,2.3-2.6,3.9-3.2c3.8-1.2,7.6,3.1,7.4,7.2s-3.2,7.4-6.3,10
		c-3.3,2.7-7.1,4.9-11,6.6"/>
</g>
<g>
	<path class="st0" d="M77.8,266c-5-13.2-19.6-22-33.5-20.1c-13.9,1.9-25.7,14.2-27.1,28.4c-1.1,11,3.6,22,10.6,30.5
		c2.3,2.8,5,5.5,8.2,7.3c4.9,2.7,10.6,3.3,16.2,3.4c6.1,0.2,12.4-0.1,18-2.4c9.5-4,16.1-14.1,16.5-24.6c0.4-10.5-5.1-20.8-13.5-26.8
		"/>
</g>
<g>
	<path class="st0" d="M261,193.7c-7,3-13.2,7.6-18.2,13.4c-2.9,3.4-5.5,7.5-5.5,12c0,7.5,7.9,13.5,15.2,12.6c7.4-1,13.2-7.6,14.7-15
		c1.5-7.4-4.5-20.5-4.5-20.5c-0.2-0.5-0.9-0.9-1.4-0.8c0,0-2.5,0.3-3.7,1.6"/>
</g>
<g>
	<path class="st0" d="M287.4,158.5c1.2-8.8,2.9-17.4,5.1-26c2.2-8.7,5.1-17.4,10.9-24.2c5.8-6.7,15.3-10.9,23.7-8.1
		c4.6,1.5,8.4,5,11,9.2c4.6,7.4,5.4,17,2.1,25.1c-3.8,9.2-12.4,15.6-21.6,19c-9.2,3.4-19.1,4.2-28.9,4.9"/>
</g>
<g>
	<path class="st0" d="M363.3,48.2c-6-3.5-14.1-1.3-18.9,3.8s-6.9,12.2-7.7,19.1c-0.7,5.9-0.6,12.1,2.1,17.4c2.3,4.7,6.5,8.3,11,10.9
		c7.3,4.1,16.3,5.8,24,2.5c8-3.4,13.4-11.9,14.1-20.7c0.8-8.8-2.6-17.6-8.2-24.4c-4.6-5.6-11.3-10.1-18.3-9.3"/>
</g>
<g>
	<path class="st0" d="M23.1,258.1c-3.2,9.4-5.2,28.3-5.2,28.3c-0.1,0.5,0,0.6,0.2,0l12.1-34.6c0.2-0.5,0.3-0.5,0.2,0.1l-7.4,40.2
		c-0.1,0.5-0.1,0.5,0.1,0c0,0,7.3-26.7,12.6-39.9c0.5-1.3,2-1.9,2-1.9c0.5-0.2,0.8,0.1,0.7,0.6L28.7,302c-0.1,0.5-0.1,0.6,0.1,0
		l16-53.1c0.2-0.5,0.2-0.5,0.2,0l-6.4,58.6c-0.1,0.5,0,0.6,0.1,0l12.7-52.2c0.1-0.5,0.2-0.5,0.2,0l-4,52.5c-0.1,0.5,0,0.6,0.1,0
		L61.1,254c0.2-0.5,0.3-0.5,0.3,0l-4.5,52.1c-0.1,0.5,0,0.5,0,0L68.4,254c0.1-0.5,0.3-0.5,0.2,0l-2.5,49.9c-0.1,0.5,0,0.5,0,0
		l8.8-42.5c0.1-0.5,0.3-0.5,0.3,0l-1.8,44.1c0,0.5,0,0.6,0.1,0l5.1-29.7c0.1-0.5,0.2-0.5,0.3,0c0,0,1.6,16.6,1,25.4"/>
</g>
<g>
	<path class="st0" d="M343.8,56.7c-3.2,8.6-9.2,24.8-9.2,24.8c-0.2,0.5-0.2,0.5,0.1,0l15.6-30.9c0.3-0.5,0.4-0.4,0.2,0.1L341,91.2
		c-0.1,0.5-0.1,0.6,0.1,0l15.6-38c0.2-0.5,0.3-0.5,0.2,0.1l-9.1,38.3c-0.1,0.5-0.1,0.6,0.1,0l12.9-35.3c0.2-0.5,0.3-0.5,0.2,0
		l-7.4,37.7c-0.1,0.5-0.1,0.5,0.1,0l13-34.1c0.2-0.5,0.3-0.5,0.2,0.1l-7.6,34.2c-0.1,0.5-0.1,0.5,0.1,0L370.7,62
		c0.2-0.5,0.3-0.5,0.2,0.1l-5.2,35.6c-0.1,0.5-0.1,0.5,0.1,0l10.4-30.4c0.2-0.5,0.3-0.5,0.2,0l-5.7,31.4c-0.1,0.5-0.1,0.6,0.1,0
		l9.9-28.2c0.2-0.5,0.3-0.5,0.2,0l-2.7,19.9c-0.1,0.5,0.1,0.6,0.3,0.1c0,0,3.4-6.4,4.3-10.4"/>
</g>
<g>
	<path class="st0" d="M65.4,236.9c-0.5,9.1,4.9,25.5,4.9,25.5c0.2,0.5,0.3,0.5,0.4,0l1.6-30.5c0-0.5,0.1-0.6,0.2,0l6,30.4
		c0.1,0.5,0.2,0.5,0.2,0l0.7-39.9c0-0.5,0.1-0.6,0.1,0l4.7,35.3c0.1,0.5,0.1,0.5,0.1,0l0.4-42.2c0-0.5,0.1-0.6,0.2,0l6.1,36.1
		c0.1,0.5,0.2,0.5,0.2,0l1.6-39.5c0-0.5,0.1-0.6,0.2,0l5,30.3c0.1,0.5,0.2,0.5,0.2,0c0,0,0.3-18.3,0.4-28c0-3.1,2.7-7.4,2.7-7.4
		c0.3-0.5,0.6-0.4,0.6,0.1l3.4,21.9c0.1,0.5,0.3,0.5,0.3,0l1-24.4c0-0.5,0.1-0.6,0.2,0l2.2,5.8c0.3,0.5,0.6,0.4,0.7-0.1
		c0,0,1.6-7.3,2.5-11.5"/>
</g>
<g>
	<path class="st0" d="M238,211.7c-1.1,4.1-0.3,11.6-0.3,11.6c0.1,0.5,0.2,0.6,0.3,0l4.2-17.5c0.2-0.5,0.3-0.5,0.3,0l1,19.9
		c0,0.5,0.2,0.6,0.3,0l6.2-23.6c0.1-0.5,0.3-0.5,0.2,0l-0.2,27.3c0,0.5,0.1,0.6,0.2,0l5.2-28.2c0.1-0.5,0.2-0.5,0.2,0l0.1,22.1
		c0,0.5,0.1,0.6,0.2,0l3.4-22c0.1-0.5,0.2-0.5,0.2,0l1,19.1c0,0.5,0.1,0.6,0.2,0l2.7-13.5c0.1-0.5,0.2-0.5,0.3,0
		c0,0,0.4,6.4,0.6,10.2"/>
</g>
<g>
	<path class="st0" d="M26.5,348.8c-0.9,1.7-0.7,4.6-0.7,4.6c0,0.5,0.4,0.7,0.9,0.4c0,0,3.1-2.2,1.2-3.3s-2.3,2.7-2.3,2.7
		c-0.1,0.5,0.1,0.6,0.4,0.1l0.5-2.2c-0.1-0.5-0.4-0.6-0.8-0.2c0,0-1.7,2-0.3,3c1.4,1,3.5-0.1,4-1.7s-1.2-3.7-1.2-3.7
		c-0.4-0.4-0.7-0.3-0.9,0.2l0.6,3.9c0.3,0.5,0.8,0.6,1.1,0.3c0.3-0.3,0-1.5-0.5-1.7c0,0-1-0.4-1.8,0.1c-0.8,0.5-1,1.9-0.2,2.4"/>
</g>
<g>
	<path class="st0" d="M33,367.9c-1.9-1-4.5-0.2-5.2,1.8s1.8,4.4,3.6,3.2c0.6-0.4,1-1,1.2-1.6c0.6-1.2,0.9-2.7,0.4-4
		c-0.5-1.3-2-2.2-3.3-1.6c-1.9,0.8-0.8,4.6-0.8,4.6c0.2,0.5,0.7,0.8,1.2,0.7c0,0,2.7-0.7,2.6-2.5c-0.1-1.8-2.6-2.9-3.9-1.7
		s-0.1,4,1.7,3.6c1.7-0.4,0.3-2.8,0.3-2.8c-0.3-0.5-0.8-0.5-1.1,0l-0.2,0.8c0,0.5,0.5,0.9,1,0.9c0,0,0.8-0.1,0.7-0.9"/>
</g>
<g>
	<path class="st0" d="M9.4,342.3c-2.7-7.1-5.5-14.5-4.8-22s6.3-15.2,13.8-15.5"/>
</g>
<g>
	<path class="st0" d="M7.3,302.9c3.5-0.8,9.8-0.6,9.8-0.6c0.5,0,1.1,0.5,1.2,1c0,0,1.2,7,1.9,11.1"/>
</g>
<g>
	<path class="st0" d="M107.2,243.6c37.5,13.9,82.4,5.1,112-22.1"/>
</g>
<g>
	<path class="st0" d="M206,218c3.9,0.7,10.8,2.1,10.8,2.1c0.5,0.1,1,0.6,1,1.2c0,0,0.1,6.4,0.1,10.1"/>
</g>
<g>
	<path class="st0" d="M277.5,126.2c-16.4-10.6-37.1-12.8-56.2-9.3c-19.1,3.5-52.7,22-52.7,22c-0.5,0.3-0.7,0.1-0.6-0.5l3.7-11.5
		c0.2-0.5,0-0.6-0.3-0.2c0,0-5.3,6.9-4.9,11.4c0.4,4.7,6.1,6.4,10.7,7"/>
</g>
<g>
	<path class="st0" d="M299.5,65.6c1.9,1.1,3.8,2.3,5.7,3.4"/>
</g>
<g>
	<path class="st0" d="M313.6,75.5c1.5,1.2,3.1,2.5,4.6,3.7"/>
</g>
<g>
	<path class="st0" d="M324.7,85.6c1.8,0.9,3.7,1.9,5.5,2.8"/>
</g>
<g>
	<path class="st0" d="M334.7,96c1.7,0,3.4,0.7,4.7,1.8"/>
</g>
<g>
	<path class="st0" d="M344.9,104.3c1.4,0,2.8,0.7,3.7,1.9"/>
</g>
<g>
	<path class="st0" d="M356.9,114.4c1.2,0.3,2.5,0.6,3.7,0.9"/>
</g>
<g>
	<path class="st0" d="M368.7,125c1.3,1,3.1,1.3,4.6,0.8"/>
</g>
<g>
	<path class="st0" d="M378.9,134.2c1.2,0,2.5,0,3.7,0"/>
</g>
<path class="st0" d="M35.7,345.8c3.1,8,6.1,16,9.2,24c-2.1-5.9-4.1-11.7-6.2-17.6c-0.6-1.6-1.2-3.3-0.9-5c0.4-3.2,3.9-5.6,7.1-4.9
	s5.4,4.1,5.1,7.3c-0.3,3.2-2.8,6.1-5.9,6.9c3.6-1,7.5-2,11-0.9c3.6,1.2,6.4,5.5,4.7,8.8c-1.4,2.7-4.8,3.5-7.8,4
	c-2.1,0.4-4.2,0.7-6.4,1.1"/>
<path class="st0" d="M319.2,277c0.8,4.9,2.1,9.7,3.8,14.3"/>
<path class="st0" d="M330.8,274.3c1.2,5.3,2.5,10.6,3.7,15.9"/>
<path class="st0" d="M347.5,175.8c-0.5,0,0.2-1,0.3-0.5c1.4,5.2,2.9,10.4,4.3,15.6c1-0.9,1.7-2.1,1.9-3.5"/>
<path class="st0" d="M358.1,170.6c1.1,5.9,2.1,11.9,3.2,17.8"/>
<path class="st0" d="M320.5,288.7c3-3,7.3-4.6,11.5-4.1"/>
<path class="st0" d="M33.8,112.9c2.2,5.9,4.4,11.8,6.6,17.7"/>
<path class="st0" d="M42.3,107.2c0.4,6.7,3.2,13.3,7.8,18.2"/>
<path class="st0" d="M75.1,88.1c2.8,4,4.7,8.7,5.4,13.6"/>
<path class="st0" d="M82.6,75.5c1.8,7.5,3.6,14.9,5.4,22.4"/>
<path class="st0" d="M348.5,181.9c4.7-0.3,9.3-1.3,13.8-2.9"/>
<path class="st0" d="M35.9,118.6c3.1-0.7,6.2-1.8,9.1-3.1"/>
<path class="st0" d="M78.2,93.2c2.1-1,4.3-1.9,6.4-2.9"/>
<path class="st0" d="M372.8,39c-1-5.9,0.9-12.2,4.9-16.6s10.1-6.7,15.9-6.1"/>
<path class="st0" d="M380.4,10.8c4.2,2.1,8.4,4.2,12.6,6.4c0.8,0.4,1.6,0.8,1.9,1.6c0.3,0.7,0.2,1.5,0,2.3c-0.6,3.2-1.3,6.4-1.9,9.6
	"/>
</svg>
